<?xml version="1.0" encoding="utf-8"?>
<!-- Generator: Adobe Illustrator 21.0.0, SVG Export Plug-In . SVG Version: 6.00 Build 0)  -->
<svg version="1.1" id="Layer_1" xmlns="http://www.w3.org/2000/svg" xmlns:xlink="http://www.w3.org/1999/xlink" x="0px" y="0px"
	 viewBox="0 0 510.2 86" style="enable-background:new 0 0 510.2 86;" xml:space="preserve">
<style type="text/css">
	.st0{enable-background:new    ;}
	.st1{fill:#01ACD8;}
	.st2{fill:#414142;}
	.st3{font-family:'DoulosSIL';}
	.st4{font-size:12.3px;}
</style>
<g class="st0">
	<path class="st1" d="M90.7,3.6c-1.3,0-2.5,0.2-3.4,0.6c-1,0.4-1.7,1-2.2,1.8c-0.6,1.1-1,3.3-1,6.9v53h-1.7L40.9,15.2v38.6
		c0,3.9,0.4,6.3,1.3,7.3c1.1,1.3,3,1.9,5.5,1.9h2.2v1.8h-22V63h2.2c1.4,0,2.6-0.2,3.5-0.6c0.9-0.4,1.7-1,2.2-1.9
		c0.4-0.5,0.6-1.3,0.8-2.4s0.3-2.6,0.3-4.4V10.1c-0.3-0.3-0.7-0.9-1.1-1.6c-0.4-0.7-1.1-1.5-1.9-2.2c-0.8-0.7-1.8-1.4-3-1.9
		c-1.2-0.6-2.8-0.8-4.6-0.8V1.9h15.3L80,49.1V12.8c0-4-0.4-6.4-1.3-7.2c-1.1-1.3-3-2-5.5-2h-2.1V1.9h21.8v1.7H90.7z"/>
	<path class="st1" d="M154.3,50.1c-1.5,2.8-3.2,5.1-5,7.2c-1.8,2-3.8,3.7-5.9,5.1c-2.1,1.3-4.4,2.3-7,3c-2.5,0.7-5.2,1-8.2,1
		c-3.2,0-6.2-0.4-8.9-1.2c-2.8-0.8-5.3-1.9-7.5-3.3c-2.3-1.4-4.3-3.1-6-5.1c-1.7-2-3.2-4.2-4.4-6.5c-1.2-2.4-2.1-4.9-2.7-7.6
		c-0.6-2.7-0.9-5.5-0.9-8.3c0-4.6,0.8-8.9,2.3-13c1.5-4.1,3.7-7.7,6.5-10.8c2.8-3.1,6.2-5.5,10.1-7.3c4-1.8,8.3-2.7,13.2-2.7
		c2.4,0,4.5,0.2,6.3,0.7c1.8,0.5,3.4,1,4.7,1.5c1.3,0.5,2.4,1,3.3,1.5c0.9,0.5,1.5,0.7,2,0.7c0.8,0,1.6-0.4,2.3-1.1
		c0.7-0.7,1.2-1.8,1.6-3.3h1.7l1.5,21.4h-1.5c-1-3.2-2.1-6-3.5-8.3c-1.4-2.3-3-4.2-4.8-5.6c-1.8-1.5-3.7-2.5-5.9-3.2
		c-2.1-0.7-4.4-1-6.9-1c-3.2,0-6.2,0.6-8.9,1.8c-2.7,1.2-5.1,3.1-7,5.6c-2,2.5-3.5,5.7-4.6,9.6c-1.1,3.8-1.7,8.4-1.7,13.6
		c0,4.5,0.6,8.5,1.7,11.9c1.1,3.5,2.7,6.4,4.8,8.7c2.1,2.3,4.5,4.1,7.4,5.3c2.9,1.2,6.1,1.8,9.7,1.8c2.1,0,4-0.2,5.7-0.6
		c1.8-0.4,3.5-1.1,5.1-2c1.7-1,3.3-2.3,5-4c1.7-1.7,3.4-3.8,5.3-6.5L154.3,50.1z"/>
	<path class="st1" d="M217.7,50.1c-1.5,2.8-3.2,5.1-5,7.2c-1.8,2-3.8,3.7-5.9,5.1c-2.1,1.3-4.4,2.3-7,3c-2.5,0.7-5.2,1-8.2,1
		c-3.2,0-6.2-0.4-8.9-1.2c-2.8-0.8-5.3-1.9-7.5-3.3c-2.3-1.4-4.3-3.1-6-5.1c-1.7-2-3.2-4.2-4.4-6.5c-1.2-2.4-2.1-4.9-2.7-7.6
		c-0.6-2.7-0.9-5.5-0.9-8.3c0-4.6,0.8-8.9,2.3-13c1.5-4.1,3.7-7.7,6.5-10.8C172.7,7.4,176,5,180,3.2c4-1.8,8.3-2.7,13.2-2.7
		c2.4,0,4.5,0.2,6.3,0.7c1.8,0.5,3.4,1,4.7,1.5c1.3,0.5,2.4,1,3.3,1.5c0.9,0.5,1.5,0.7,2,0.7c0.8,0,1.6-0.4,2.3-1.1
		c0.7-0.7,1.2-1.8,1.6-3.3h1.7l1.5,21.4h-1.5c-1-3.2-2.1-6-3.5-8.3c-1.4-2.3-3-4.2-4.8-5.6c-1.8-1.5-3.7-2.5-5.9-3.2
		c-2.1-0.7-4.4-1-6.9-1c-3.2,0-6.2,0.6-8.9,1.8c-2.7,1.2-5.1,3.1-7,5.6c-2,2.5-3.5,5.7-4.6,9.6c-1.1,3.8-1.7,8.4-1.7,13.6
		c0,4.5,0.6,8.5,1.7,11.9c1.1,3.5,2.7,6.4,4.8,8.7c2.1,2.3,4.5,4.1,7.4,5.3c2.9,1.2,6.1,1.8,9.7,1.8c2.1,0,4-0.2,5.7-0.6
		c1.8-0.4,3.5-1.1,5.1-2c1.7-1,3.3-2.3,5-4c1.7-1.7,3.4-3.8,5.3-6.5L217.7,50.1z"/>
	<path class="st1" d="M268.9,48.8c0,2.4-0.5,4.6-1.5,6.8c-1,2.1-2.3,4-4.1,5.6c-1.8,1.6-3.9,2.9-6.3,3.8c-2.4,0.9-5.1,1.4-8,1.4
		c-2.1,0-4.1-0.2-5.8-0.6c-1.8-0.4-3.3-0.8-4.7-1.3c-1.4-0.5-2.6-0.9-3.7-1.3s-1.9-0.6-2.7-0.6c-0.7,0-1.3,0.3-1.8,0.8
		c-0.5,0.5-0.8,1.5-1,2.8h-1.7V44.7h1.7c0.4,3.2,1.2,6,2.3,8.3c1.2,2.3,2.6,4.1,4.3,5.6c1.7,1.4,3.6,2.5,5.7,3.1s4.2,1,6.5,1
		c1.9,0,3.7-0.3,5.2-0.8c1.6-0.6,2.9-1.3,4-2.2c1.1-0.9,1.9-2,2.5-3.3s0.9-2.6,0.9-3.9c0-1.5-0.3-2.9-0.8-4.1
		c-0.5-1.2-1.4-2.3-2.6-3.4c-1.2-1.1-2.8-2.2-4.7-3.4c-1.9-1.2-4.3-2.6-7-4.1c-3.7-2.1-6.8-4-9.2-5.6c-2.4-1.7-4.2-3.2-5.6-4.8
		c-1.4-1.5-2.3-3.1-2.8-4.6c-0.5-1.6-0.7-3.3-0.7-5.3c0-2.2,0.4-4.3,1.3-6.3c0.8-2,2.1-3.7,3.7-5.3c1.6-1.5,3.5-2.7,5.8-3.6
		c2.3-0.9,4.8-1.3,7.6-1.3c1.8,0,3.5,0.2,5,0.6c1.5,0.4,2.8,0.8,4,1.2c1.2,0.4,2.2,0.9,3.1,1.2c0.9,0.4,1.7,0.5,2.4,0.5
		c0.7,0,1.3-0.3,1.8-0.8c0.5-0.5,0.9-1.4,1.2-2.8h1.7v21.8h-1.7c-0.3-3-1-5.6-2-7.8c-1-2.3-2.3-4.1-3.9-5.7
		c-1.6-1.5-3.3-2.7-5.3-3.5c-2-0.8-4.1-1.2-6.3-1.2c-1.5,0-2.9,0.3-4.3,0.8c-1.3,0.5-2.5,1.2-3.5,2.1c-1,0.9-1.8,1.9-2.4,3.1
		c-0.6,1.2-0.9,2.4-0.9,3.7c0,1.2,0.2,2.4,0.7,3.4c0.5,1,1.3,2.1,2.5,3.2c1.2,1.1,2.8,2.3,4.8,3.5c2,1.3,4.6,2.7,7.7,4.4
		c3,1.6,5.5,3,7.4,4.2c2,1.2,3.5,2.2,4.6,3.1c2.1,1.6,3.8,3.5,5,5.8C268.3,43.7,268.9,46.2,268.9,48.8z"/>
</g>
<g class="st0">
	<path class="st2" d="M32.1,74.5c-0.2,0-0.3,0-0.4,0.1c-0.1,0-0.2,0.1-0.3,0.2c-0.1,0.1-0.1,0.4-0.1,0.9v6.9h-0.2L25.7,76v5
		c0,0.5,0.1,0.8,0.2,0.9c0.1,0.2,0.4,0.2,0.7,0.2h0.3v0.2H24v-0.2h0.3c0.2,0,0.3,0,0.5-0.1c0.1,0,0.2-0.1,0.3-0.2
		c0-0.1,0.1-0.2,0.1-0.3c0-0.1,0-0.3,0-0.6v-5.7c0,0-0.1-0.1-0.1-0.2s-0.1-0.2-0.2-0.3s-0.2-0.2-0.4-0.2c-0.2-0.1-0.4-0.1-0.6-0.1
		v-0.2h2l5,6.1v-4.7c0-0.5-0.1-0.8-0.2-0.9c-0.1-0.2-0.4-0.3-0.7-0.3h-0.3v-0.2h2.8v0.2H32.1z"/>
</g>
<g class="st0">
	<path class="st2" d="M37.4,82.5v-0.2c0.3,0,0.5,0,0.6-0.1s0.2-0.2,0.2-0.3s0-0.3-0.1-0.4s-0.1-0.3-0.2-0.5l-0.5-1.2h-3.2L33.8,81
		c-0.1,0.2-0.1,0.3-0.2,0.5c0,0.1,0,0.3,0,0.4c0,0.1,0.1,0.2,0.3,0.2c0.1,0.1,0.4,0.1,0.6,0.1v0.2H32v-0.2c0.2,0,0.3,0,0.5-0.1
		c0.1-0.1,0.2-0.2,0.3-0.3s0.2-0.3,0.3-0.4c0.1-0.2,0.2-0.4,0.3-0.6l2.9-6.7h0.2l2.8,6.8c0.1,0.3,0.2,0.5,0.3,0.7
		c0.1,0.2,0.2,0.3,0.3,0.4s0.2,0.2,0.3,0.2c0.1,0,0.3,0.1,0.4,0.1v0.2H37.4z M36,76l-1.4,3.3h2.8L36,76z"/>
</g>
<g class="st0">
	<path class="st2" d="M47,76.2c0-0.1,0-0.3-0.1-0.4c0-0.1-0.1-0.2-0.1-0.3s-0.1-0.1-0.1-0.2s-0.1-0.1-0.1-0.2
		c-0.1-0.1-0.3-0.2-0.4-0.3c-0.2-0.1-0.4-0.1-0.7-0.1h-1.2V81c0,0.3,0,0.5,0,0.6c0,0.2,0.1,0.3,0.1,0.3c0.1,0.2,0.4,0.2,0.7,0.2h0.3
		v0.2H42v-0.2h0.3c0.2,0,0.3,0,0.4-0.1c0.1,0,0.2-0.1,0.3-0.2c0-0.1,0.1-0.2,0.1-0.3c0-0.1,0-0.3,0-0.6v-6.2h-1c-0.2,0-0.3,0-0.4,0
		c-0.1,0-0.2,0-0.3,0c-0.1,0-0.2,0-0.2,0.1c-0.1,0-0.1,0.1-0.2,0.1c-0.3,0.2-0.5,0.6-0.5,1.2h-0.3l0.1-1.9h6.8l0.1,1.9H47z"/>
</g>
<g class="st0">
	<path class="st2" d="M47.6,82.5v-0.2h0.3c0.2,0,0.3,0,0.4-0.1c0.1,0,0.2-0.1,0.3-0.2c0.1-0.1,0.1-0.4,0.1-0.9v-5.3
		c0-0.1,0-0.3,0-0.4c0-0.1,0-0.2,0-0.3c0-0.1,0-0.1,0-0.2s0-0.1-0.1-0.1c-0.1-0.1-0.2-0.2-0.3-0.2c-0.1-0.1-0.3-0.1-0.4-0.1h-0.3
		v-0.2h3.5v0.2h-0.3c-0.3,0-0.6,0.1-0.7,0.3c0,0.1-0.1,0.2-0.1,0.3c0,0.2,0,0.3,0,0.6V81c0,0.3,0,0.5,0,0.6c0,0.1,0.1,0.3,0.1,0.3
		c0,0,0.1,0.1,0.1,0.1c0.1,0,0.1,0.1,0.2,0.1c0.1,0,0.1,0,0.2,0.1c0.1,0,0.1,0,0.2,0h0.3v0.2H47.6z"/>
</g>
<g class="st0">
	<path class="st2" d="M59.5,78.3c0,0.4,0,0.8-0.1,1.2c-0.1,0.4-0.2,0.7-0.4,1c-0.2,0.3-0.4,0.6-0.6,0.9s-0.5,0.5-0.8,0.7
		c-0.3,0.2-0.6,0.3-1,0.4c-0.3,0.1-0.7,0.1-1.1,0.1c-0.6,0-1.1-0.1-1.6-0.3s-0.9-0.5-1.3-0.9c-0.4-0.4-0.6-0.8-0.8-1.4
		c-0.2-0.5-0.3-1.1-0.3-1.8c0-0.6,0.1-1.2,0.3-1.7c0.2-0.5,0.5-1,0.9-1.3c0.4-0.4,0.8-0.7,1.3-0.9c0.5-0.2,1-0.3,1.6-0.3
		c0.4,0,0.7,0,1,0.1c0.3,0.1,0.6,0.2,0.9,0.4c0.3,0.2,0.6,0.4,0.8,0.6c0.2,0.3,0.4,0.5,0.6,0.8c0.2,0.3,0.3,0.7,0.4,1
		C59.4,77.5,59.5,77.9,59.5,78.3z M58.1,78.5c0-0.6,0-1.2-0.2-1.7c-0.1-0.5-0.3-0.9-0.5-1.2c-0.2-0.3-0.5-0.6-0.8-0.8
		c-0.3-0.2-0.7-0.3-1.2-0.3c-0.4,0-0.8,0.1-1.1,0.3s-0.6,0.4-0.8,0.8s-0.4,0.7-0.5,1.2c-0.1,0.5-0.2,1-0.2,1.6
		c0,0.6,0.1,1.1,0.2,1.6c0.1,0.5,0.3,0.9,0.5,1.2c0.2,0.3,0.5,0.6,0.8,0.8c0.3,0.2,0.7,0.3,1.1,0.3c0.4,0,0.7-0.1,1.1-0.2
		c0.3-0.1,0.6-0.4,0.8-0.7c0.2-0.3,0.4-0.7,0.5-1.2C58.1,79.7,58.1,79.1,58.1,78.5z"/>
</g>
<g class="st0">
	<path class="st2" d="M68.1,74.5c-0.2,0-0.3,0-0.4,0.1c-0.1,0-0.2,0.1-0.3,0.2c-0.1,0.1-0.1,0.4-0.1,0.9v6.9H67L61.7,76v5
		c0,0.5,0.1,0.8,0.2,0.9c0.1,0.2,0.4,0.2,0.7,0.2h0.3v0.2H60v-0.2h0.3c0.2,0,0.3,0,0.5-0.1c0.1,0,0.2-0.1,0.3-0.2
		c0-0.1,0.1-0.2,0.1-0.3c0-0.1,0-0.3,0-0.6v-5.7c0,0-0.1-0.1-0.1-0.2s-0.1-0.2-0.2-0.3s-0.2-0.2-0.4-0.2c-0.2-0.1-0.4-0.1-0.6-0.1
		v-0.2h2l5,6.1v-4.7c0-0.5-0.1-0.8-0.2-0.9c-0.1-0.2-0.4-0.3-0.7-0.3h-0.3v-0.2h2.8v0.2H68.1z"/>
</g>
<g class="st0">
	<path class="st2" d="M73.8,82.5v-0.2c0.3,0,0.5,0,0.6-0.1s0.2-0.2,0.2-0.3s0-0.3-0.1-0.4s-0.1-0.3-0.2-0.5l-0.5-1.2h-3.2L70.2,81
		c-0.1,0.2-0.1,0.3-0.2,0.5c0,0.1,0,0.3,0,0.4c0,0.1,0.1,0.2,0.3,0.2c0.1,0.1,0.4,0.1,0.6,0.1v0.2h-2.6v-0.2c0.2,0,0.3,0,0.5-0.1
		c0.1-0.1,0.2-0.2,0.3-0.3s0.2-0.3,0.3-0.4c0.1-0.2,0.2-0.4,0.3-0.6l2.9-6.7h0.2l2.8,6.8c0.1,0.3,0.2,0.5,0.3,0.7
		c0.1,0.2,0.2,0.3,0.3,0.4s0.2,0.2,0.3,0.2c0.1,0,0.3,0.1,0.4,0.1v0.2H73.8z M72.3,76l-1.4,3.3h2.8L72.3,76z"/>
	<path class="st2" d="M83.7,82.5h-6.3v-0.2c0.2,0,0.3,0,0.5,0c0.1,0,0.3-0.1,0.4-0.1c0.1-0.1,0.2-0.2,0.2-0.3
		c0.1-0.1,0.1-0.3,0.1-0.5v-5.7c0-0.2,0-0.4-0.1-0.5s-0.1-0.2-0.2-0.3c-0.1-0.1-0.2-0.1-0.4-0.1c-0.1,0-0.3,0-0.5,0v-0.2h3.5v0.2
		c-0.2,0-0.3,0-0.5,0c-0.1,0-0.3,0.1-0.4,0.1c-0.1,0.1-0.2,0.2-0.2,0.3c-0.1,0.1-0.1,0.3-0.1,0.5v5.4c0,0.2,0,0.4,0.1,0.5
		c0,0.1,0.1,0.2,0.2,0.3c0.1,0.1,0.2,0.1,0.3,0.1c0.1,0,0.3,0,0.5,0h0.8c0.2,0,0.5,0,0.6,0s0.3,0,0.5-0.1c0.1,0,0.2-0.1,0.3-0.1
		s0.2-0.1,0.3-0.2c0.1-0.1,0.2-0.2,0.3-0.3c0.1-0.1,0.2-0.2,0.2-0.3c0.1-0.1,0.1-0.2,0.2-0.4c0.1-0.1,0.1-0.3,0.2-0.5l0.2,0
		L83.7,82.5z"/>
</g>
<g class="st0">
	<path class="st2" d="M93.8,80.5c-0.2,0.4-0.4,0.7-0.6,0.9c-0.2,0.3-0.5,0.5-0.8,0.7c-0.3,0.2-0.6,0.3-0.9,0.4
		c-0.3,0.1-0.7,0.1-1.1,0.1c-0.4,0-0.8-0.1-1.2-0.2s-0.7-0.2-1-0.4c-0.3-0.2-0.6-0.4-0.8-0.7s-0.4-0.5-0.6-0.8
		c-0.2-0.3-0.3-0.6-0.4-1c-0.1-0.3-0.1-0.7-0.1-1.1c0-0.6,0.1-1.2,0.3-1.7c0.2-0.5,0.5-1,0.8-1.4s0.8-0.7,1.3-1
		c0.5-0.2,1.1-0.4,1.7-0.4c0.3,0,0.6,0,0.8,0.1c0.2,0.1,0.4,0.1,0.6,0.2c0.2,0.1,0.3,0.1,0.4,0.2c0.1,0.1,0.2,0.1,0.3,0.1
		c0.1,0,0.2,0,0.3-0.1c0.1-0.1,0.2-0.2,0.2-0.4h0.2l0.2,2.8h-0.2c-0.1-0.4-0.3-0.8-0.5-1.1c-0.2-0.3-0.4-0.5-0.6-0.7
		c-0.2-0.2-0.5-0.3-0.8-0.4c-0.3-0.1-0.6-0.1-0.9-0.1c-0.4,0-0.8,0.1-1.2,0.2c-0.4,0.2-0.7,0.4-0.9,0.7c-0.3,0.3-0.5,0.7-0.6,1.2
		c-0.1,0.5-0.2,1.1-0.2,1.8c0,0.6,0.1,1.1,0.2,1.5s0.4,0.8,0.6,1.1c0.3,0.3,0.6,0.5,1,0.7c0.4,0.2,0.8,0.2,1.3,0.2
		c0.3,0,0.5,0,0.7-0.1c0.2-0.1,0.5-0.1,0.7-0.3c0.2-0.1,0.4-0.3,0.6-0.5c0.2-0.2,0.4-0.5,0.7-0.8L93.8,80.5z"/>
</g>
<g class="st0">
	<path class="st2" d="M100.4,82.5h-6.3v-0.2c0.2,0,0.3,0,0.5,0c0.1,0,0.3-0.1,0.4-0.1c0.1-0.1,0.2-0.2,0.2-0.3
		c0.1-0.1,0.1-0.3,0.1-0.5v-5.7c0-0.2,0-0.4-0.1-0.5s-0.1-0.2-0.2-0.3c-0.1-0.1-0.2-0.1-0.4-0.1c-0.1,0-0.3,0-0.5,0v-0.2h3.5v0.2
		c-0.2,0-0.3,0-0.5,0c-0.1,0-0.3,0.1-0.4,0.1c-0.1,0.1-0.2,0.2-0.2,0.3c-0.1,0.1-0.1,0.3-0.1,0.5v5.4c0,0.2,0,0.4,0.1,0.5
		c0,0.1,0.1,0.2,0.2,0.3c0.1,0.1,0.2,0.1,0.3,0.1c0.1,0,0.3,0,0.5,0h0.8c0.2,0,0.5,0,0.6,0s0.3,0,0.5-0.1c0.1,0,0.2-0.1,0.3-0.1
		s0.2-0.1,0.3-0.2c0.1-0.1,0.2-0.2,0.3-0.3c0.1-0.1,0.2-0.2,0.2-0.3c0.1-0.1,0.1-0.2,0.2-0.4c0.1-0.1,0.1-0.3,0.2-0.5l0.2,0
		L100.4,82.5z"/>
</g>
<g class="st0">
	<path class="st2" d="M101.3,82.5v-0.2h0.3c0.2,0,0.3,0,0.4-0.1c0.1,0,0.2-0.1,0.3-0.2c0.1-0.1,0.1-0.4,0.1-0.9v-5.3
		c0-0.1,0-0.3,0-0.4c0-0.1,0-0.2,0-0.3c0-0.1,0-0.1,0-0.2s0-0.1-0.1-0.1c-0.1-0.1-0.2-0.2-0.3-0.2c-0.1-0.1-0.3-0.1-0.4-0.1h-0.3
		v-0.2h3.5v0.2h-0.3c-0.3,0-0.6,0.1-0.7,0.3c0,0.1-0.1,0.2-0.1,0.3c0,0.2,0,0.3,0,0.6V81c0,0.3,0,0.5,0,0.6c0,0.1,0.1,0.3,0.1,0.3
		c0,0,0.1,0.1,0.1,0.1c0.1,0,0.1,0.1,0.2,0.1c0.1,0,0.1,0,0.2,0.1c0.1,0,0.1,0,0.2,0h0.3v0.2H101.3z"/>
</g>
<g class="st0">
	<path class="st2" d="M112.2,82.5v-0.2h0.3c0.2,0,0.3,0,0.5-0.1c0.1,0,0.2-0.1,0.3-0.2c0.1-0.1,0.1-0.4,0.1-0.9v-5.4l-3.1,6.9H110
		l-3.1-6.9V81c0,0.5,0.1,0.8,0.2,0.9c0.1,0.2,0.4,0.2,0.7,0.2h0.3v0.2h-2.8v-0.2h0.3c0.2,0,0.3,0,0.4-0.1c0.1,0,0.2-0.1,0.3-0.2
		c0-0.1,0.1-0.2,0.1-0.3c0-0.1,0-0.3,0-0.6v-5.3c0-0.3,0-0.5,0-0.6c0-0.2-0.1-0.3-0.2-0.4c-0.1-0.1-0.2-0.1-0.3-0.2
		c-0.1,0-0.3-0.1-0.5-0.1v-0.2h2.3l3,6.4l2.9-6.4h2.3v0.2h-0.3c-0.3,0-0.6,0.1-0.7,0.3c0,0.1-0.1,0.2-0.1,0.3c0,0.1,0,0.3,0,0.6V81
		c0,0.5,0.1,0.8,0.2,0.9c0.1,0.2,0.4,0.2,0.7,0.2h0.3v0.2H112.2z"/>
</g>
<g class="st0">
	<path class="st2" d="M121.1,82.5v-0.2c0.3,0,0.5,0,0.6-0.1s0.2-0.2,0.2-0.3s0-0.3-0.1-0.4s-0.1-0.3-0.2-0.5l-0.5-1.2h-3.2l-0.6,1.3
		c-0.1,0.2-0.1,0.3-0.2,0.5c0,0.1,0,0.3,0,0.4c0,0.1,0.1,0.2,0.3,0.2c0.1,0.1,0.4,0.1,0.6,0.1v0.2h-2.6v-0.2c0.2,0,0.3,0,0.5-0.1
		c0.1-0.1,0.2-0.2,0.3-0.3s0.2-0.3,0.3-0.4c0.1-0.2,0.2-0.4,0.3-0.6l2.9-6.7h0.2l2.8,6.8c0.1,0.3,0.2,0.5,0.3,0.7
		c0.1,0.2,0.2,0.3,0.3,0.4s0.2,0.2,0.3,0.2c0.1,0,0.3,0.1,0.4,0.1v0.2H121.1z M119.7,76l-1.4,3.3h2.8L119.7,76z"/>
</g>
<g class="st0">
	<path class="st2" d="M130.5,76.2c0-0.1,0-0.3-0.1-0.4c0-0.1-0.1-0.2-0.1-0.3s-0.1-0.1-0.1-0.2s-0.1-0.1-0.1-0.2
		c-0.1-0.1-0.3-0.2-0.4-0.3c-0.2-0.1-0.4-0.1-0.7-0.1h-1.2V81c0,0.3,0,0.5,0,0.6c0,0.2,0.1,0.3,0.1,0.3c0.1,0.2,0.4,0.2,0.7,0.2h0.3
		v0.2h-3.5v-0.2h0.3c0.2,0,0.3,0,0.4-0.1c0.1,0,0.2-0.1,0.3-0.2c0-0.1,0.1-0.2,0.1-0.3c0-0.1,0-0.3,0-0.6v-6.2h-1
		c-0.2,0-0.3,0-0.4,0c-0.1,0-0.2,0-0.3,0c-0.1,0-0.2,0-0.2,0.1c-0.1,0-0.1,0.1-0.2,0.1c-0.3,0.2-0.5,0.6-0.5,1.2h-0.3l0.1-1.9h6.8
		l0.1,1.9H130.5z"/>
</g>
<g class="st0">
	<path class="st2" d="M137.4,82.5h-6.3v-0.2h0.3c0,0,0.1,0,0.1,0c0.1,0,0.1,0,0.2,0c0.1,0,0.1,0,0.2-0.1c0.1,0,0.1-0.1,0.1-0.1
		s0.1-0.1,0.1-0.1c0,0,0.1-0.1,0.1-0.2s0-0.2,0-0.3c0-0.1,0-0.3,0-0.4v-5.3c0-0.3,0-0.5,0-0.6s-0.1-0.3-0.1-0.3
		c-0.1-0.2-0.4-0.2-0.7-0.2h-0.3v-0.2h6.3l0.1,1.8h-0.2c0-0.1-0.1-0.2-0.1-0.3c0-0.1-0.1-0.2-0.1-0.3c0-0.1-0.1-0.2-0.1-0.3
		s-0.1-0.2-0.2-0.2c-0.1-0.1-0.2-0.1-0.4-0.1s-0.4-0.1-0.6-0.1h-2.3V78h1.8c0.3,0,0.5,0,0.7-0.1c0.2,0,0.3-0.1,0.4-0.2
		c0.1-0.1,0.1-0.2,0.2-0.4c0-0.1,0.1-0.3,0.1-0.5h0.2v2.8h-0.2c0-0.2-0.1-0.4-0.1-0.5s-0.1-0.3-0.2-0.4c-0.1-0.1-0.2-0.2-0.4-0.2
		s-0.4-0.1-0.6-0.1h-1.8v3.1c0,0.1,0,0.2,0.1,0.3s0.1,0.1,0.2,0.2c0.1,0,0.2,0.1,0.4,0.1h1.4c0.2,0,0.4,0,0.6,0c0.2,0,0.3,0,0.5-0.1
		s0.3-0.1,0.4-0.2c0.1-0.1,0.2-0.2,0.3-0.3s0.2-0.3,0.3-0.4c0.1-0.2,0.2-0.4,0.3-0.6h0.2L137.4,82.5z"/>
</g>
<text transform="matrix(1 0 0 1 140.2617 82.456)" class="st2 st3 st4"> </text>
<g class="st0">
	<path class="st2" d="M148.8,80.5c-0.2,0.4-0.4,0.7-0.6,0.9c-0.2,0.3-0.5,0.5-0.8,0.7c-0.3,0.2-0.6,0.3-0.9,0.4
		c-0.3,0.1-0.7,0.1-1.1,0.1c-0.4,0-0.8-0.1-1.2-0.2s-0.7-0.2-1-0.4c-0.3-0.2-0.6-0.4-0.8-0.7s-0.4-0.5-0.6-0.8
		c-0.2-0.3-0.3-0.6-0.4-1c-0.1-0.3-0.1-0.7-0.1-1.1c0-0.6,0.1-1.2,0.3-1.7c0.2-0.5,0.5-1,0.8-1.4s0.8-0.7,1.3-1
		c0.5-0.2,1.1-0.4,1.7-0.4c0.3,0,0.6,0,0.8,0.1c0.2,0.1,0.4,0.1,0.6,0.2c0.2,0.1,0.3,0.1,0.4,0.2c0.1,0.1,0.2,0.1,0.3,0.1
		c0.1,0,0.2,0,0.3-0.1c0.1-0.1,0.2-0.2,0.2-0.4h0.2l0.2,2.8h-0.2c-0.1-0.4-0.3-0.8-0.5-1.1c-0.2-0.3-0.4-0.5-0.6-0.7
		c-0.2-0.2-0.5-0.3-0.8-0.4c-0.3-0.1-0.6-0.1-0.9-0.1c-0.4,0-0.8,0.1-1.2,0.2c-0.4,0.2-0.7,0.4-0.9,0.7c-0.3,0.3-0.5,0.7-0.6,1.2
		c-0.1,0.5-0.2,1.1-0.2,1.8c0,0.6,0.1,1.1,0.2,1.5s0.4,0.8,0.6,1.1c0.3,0.3,0.6,0.5,1,0.7c0.4,0.2,0.8,0.2,1.3,0.2
		c0.3,0,0.5,0,0.7-0.1c0.2-0.1,0.5-0.1,0.7-0.3c0.2-0.1,0.4-0.3,0.6-0.5c0.2-0.2,0.4-0.5,0.7-0.8L148.8,80.5z"/>
	<path class="st2" d="M154.4,82.5v-0.2h0.3c0.3,0,0.6-0.1,0.7-0.3c0-0.1,0.1-0.2,0.1-0.3c0-0.2,0-0.4,0-0.6v-2.5h-3.8V81
		c0,0.3,0,0.5,0,0.6c0,0.1,0.1,0.2,0.1,0.3c0.1,0.1,0.2,0.2,0.3,0.2c0.1,0.1,0.3,0.1,0.4,0.1h0.3v0.2h-3.5v-0.2h0.3
		c0.3,0,0.6-0.1,0.7-0.3c0.1-0.1,0.1-0.4,0.1-0.9v-5.3c0-0.1,0-0.3,0-0.4c0-0.1,0-0.2,0-0.3c0-0.1,0-0.1-0.1-0.2s0-0.1-0.1-0.1
		c0,0-0.1-0.1-0.1-0.1s-0.1-0.1-0.2-0.1s-0.1,0-0.2-0.1c-0.1,0-0.1,0-0.2,0h-0.3v-0.2h3.5v0.2h-0.3c-0.1,0-0.3,0-0.4,0.1
		c-0.1,0-0.2,0.1-0.3,0.2c0,0-0.1,0.1-0.1,0.1c0,0,0,0.1-0.1,0.2c0,0.1,0,0.2,0,0.3c0,0.1,0,0.2,0,0.4v2.3h3.8v-2.3
		c0-0.3,0-0.5,0-0.7c0-0.1-0.1-0.2-0.1-0.3c-0.1-0.1-0.2-0.1-0.3-0.2c-0.1,0-0.3-0.1-0.4-0.1h-0.3v-0.2h3.5v0.2h-0.3
		c-0.1,0-0.2,0-0.4,0.1c-0.1,0-0.2,0.1-0.3,0.2c0,0-0.1,0.1-0.1,0.1s0,0.1-0.1,0.2c0,0.1,0,0.2,0,0.3c0,0.1,0,0.2,0,0.4V81
		c0,0.1,0,0.2,0,0.3c0,0.1,0,0.2,0,0.3c0,0.1,0,0.1,0,0.2c0,0.1,0,0.1,0.1,0.1c0.1,0.1,0.2,0.2,0.3,0.2c0.1,0,0.3,0.1,0.4,0.1h0.3
		v0.2H154.4z"/>
	<path class="st2" d="M163.7,82.5v-0.2c0.3,0,0.5,0,0.6-0.1s0.2-0.2,0.2-0.3s0-0.3-0.1-0.4s-0.1-0.3-0.2-0.5l-0.5-1.2h-3.2l-0.6,1.3
		c-0.1,0.2-0.1,0.3-0.2,0.5c0,0.1,0,0.3,0,0.4c0,0.1,0.1,0.2,0.3,0.2c0.1,0.1,0.4,0.1,0.6,0.1v0.2h-2.6v-0.2c0.2,0,0.3,0,0.5-0.1
		c0.1-0.1,0.2-0.2,0.3-0.3s0.2-0.3,0.3-0.4c0.1-0.2,0.2-0.4,0.3-0.6l2.9-6.7h0.2l2.8,6.8c0.1,0.3,0.2,0.5,0.3,0.7
		c0.1,0.2,0.2,0.3,0.3,0.4s0.2,0.2,0.3,0.2c0.1,0,0.3,0.1,0.4,0.1v0.2H163.7z M162.3,76l-1.4,3.3h2.8L162.3,76z"/>
	<path class="st2" d="M175.4,74.5c-0.2,0-0.3,0-0.4,0.1c-0.1,0-0.2,0.1-0.3,0.2c-0.1,0.1-0.1,0.4-0.1,0.9v6.9h-0.2L169,76v5
		c0,0.5,0.1,0.8,0.2,0.9c0.1,0.2,0.4,0.2,0.7,0.2h0.3v0.2h-2.8v-0.2h0.3c0.2,0,0.3,0,0.5-0.1c0.1,0,0.2-0.1,0.3-0.2
		c0-0.1,0.1-0.2,0.1-0.3c0-0.1,0-0.3,0-0.6v-5.7c0,0-0.1-0.1-0.1-0.2s-0.1-0.2-0.2-0.3s-0.2-0.2-0.4-0.2c-0.2-0.1-0.4-0.1-0.6-0.1
		v-0.2h2l5,6.1v-4.7c0-0.5-0.1-0.8-0.2-0.9c-0.1-0.2-0.4-0.3-0.7-0.3h-0.3v-0.2h2.8v0.2H175.4z"/>
	<path class="st2" d="M184.5,78.2c-0.2,0-0.3,0-0.4,0.1c-0.1,0.1-0.2,0.1-0.2,0.2c0,0.1-0.1,0.2-0.1,0.3c0,0.1,0,0.3,0,0.6v2.5
		c-0.5,0.3-0.9,0.4-1.4,0.6c-0.5,0.1-1,0.2-1.5,0.2c-0.7,0-1.3-0.1-1.9-0.3c-0.6-0.2-1-0.5-1.4-0.9s-0.7-0.8-0.9-1.3
		c-0.2-0.5-0.3-1-0.3-1.6c0-0.3,0-0.7,0.1-1s0.2-0.7,0.4-1s0.4-0.6,0.6-0.9s0.5-0.5,0.8-0.8c0.3-0.2,0.7-0.4,1.1-0.5
		c0.4-0.1,0.8-0.2,1.3-0.2c0.3,0,0.6,0,0.9,0.1c0.3,0.1,0.5,0.1,0.7,0.2c0.2,0.1,0.3,0.1,0.5,0.2c0.1,0.1,0.2,0.1,0.3,0.1
		c0,0,0.1,0,0.1,0c0,0,0.1,0,0.1-0.1c0,0,0.1-0.1,0.1-0.2c0-0.1,0-0.2,0.1-0.3h0.2l0.2,2.6h-0.2c-0.1-0.4-0.3-0.7-0.5-1
		s-0.4-0.5-0.6-0.7c-0.2-0.2-0.5-0.3-0.8-0.4c-0.3-0.1-0.6-0.1-0.9-0.1c-0.5,0-0.9,0.1-1.3,0.3c-0.4,0.2-0.7,0.4-1,0.8
		c-0.3,0.3-0.5,0.7-0.6,1.2c-0.1,0.5-0.2,0.9-0.2,1.5c0,0.4,0,0.8,0.1,1.1c0.1,0.3,0.2,0.7,0.3,1c0.1,0.3,0.3,0.6,0.5,0.8
		c0.2,0.2,0.4,0.4,0.6,0.6c0.2,0.2,0.5,0.3,0.8,0.4c0.3,0.1,0.6,0.1,0.9,0.1c0.3,0,0.6,0,0.9-0.1s0.6-0.2,0.8-0.3v-2.3
		c0-0.3,0-0.5,0-0.6s-0.1-0.3-0.2-0.4s-0.2-0.1-0.3-0.2s-0.3,0-0.5-0.1V78h3.1v0.2H184.5z"/>
	<path class="st2" d="M191.3,82.5H185v-0.2h0.3c0,0,0.1,0,0.1,0c0.1,0,0.1,0,0.2,0c0.1,0,0.1,0,0.2-0.1c0.1,0,0.1-0.1,0.1-0.1
		s0.1-0.1,0.1-0.1c0,0,0.1-0.1,0.1-0.2s0-0.2,0-0.3c0-0.1,0-0.3,0-0.4v-5.3c0-0.3,0-0.5,0-0.6s-0.1-0.3-0.1-0.3
		c-0.1-0.2-0.4-0.2-0.7-0.2H185v-0.2h6.3l0.1,1.8h-0.2c0-0.1-0.1-0.2-0.1-0.3c0-0.1-0.1-0.2-0.1-0.3c0-0.1-0.1-0.2-0.1-0.3
		s-0.1-0.2-0.2-0.2c-0.1-0.1-0.2-0.1-0.4-0.1s-0.4-0.1-0.6-0.1h-2.3V78h1.8c0.3,0,0.5,0,0.7-0.1c0.2,0,0.3-0.1,0.4-0.2
		c0.1-0.1,0.1-0.2,0.2-0.4c0-0.1,0.1-0.3,0.1-0.5h0.2v2.8h-0.2c0-0.2-0.1-0.4-0.1-0.5s-0.1-0.3-0.2-0.4c-0.1-0.1-0.2-0.2-0.4-0.2
		s-0.4-0.1-0.6-0.1h-1.8v3.1c0,0.1,0,0.2,0.1,0.3s0.1,0.1,0.2,0.2c0.1,0,0.2,0.1,0.4,0.1h1.4c0.2,0,0.4,0,0.6,0c0.2,0,0.3,0,0.5-0.1
		s0.3-0.1,0.4-0.2c0.1-0.1,0.2-0.2,0.3-0.3s0.2-0.3,0.3-0.4c0.1-0.2,0.2-0.4,0.3-0.6h0.2L191.3,82.5z"/>
</g>
<g class="st0">
	<path class="st2" d="M201,80.4c0,0.3-0.1,0.6-0.2,0.9s-0.3,0.5-0.5,0.7c-0.2,0.2-0.5,0.4-0.8,0.5c-0.3,0.1-0.7,0.2-1,0.2
		c-0.3,0-0.5,0-0.8-0.1s-0.4-0.1-0.6-0.2c-0.2-0.1-0.3-0.1-0.5-0.2c-0.1,0-0.3-0.1-0.3-0.1c-0.1,0-0.2,0-0.2,0.1
		c-0.1,0.1-0.1,0.2-0.1,0.4h-0.2v-2.8h0.2c0.1,0.4,0.2,0.8,0.3,1.1c0.2,0.3,0.3,0.5,0.6,0.7c0.2,0.2,0.5,0.3,0.7,0.4
		c0.3,0.1,0.5,0.1,0.8,0.1c0.2,0,0.5,0,0.7-0.1s0.4-0.2,0.5-0.3s0.2-0.3,0.3-0.4s0.1-0.3,0.1-0.5c0-0.2,0-0.4-0.1-0.5
		c-0.1-0.2-0.2-0.3-0.3-0.4c-0.2-0.1-0.4-0.3-0.6-0.4c-0.3-0.2-0.6-0.3-0.9-0.5c-0.5-0.3-0.9-0.5-1.2-0.7s-0.6-0.4-0.7-0.6
		s-0.3-0.4-0.4-0.6s-0.1-0.4-0.1-0.7c0-0.3,0.1-0.6,0.2-0.8c0.1-0.3,0.3-0.5,0.5-0.7s0.5-0.4,0.7-0.5c0.3-0.1,0.6-0.2,1-0.2
		c0.2,0,0.5,0,0.6,0.1c0.2,0,0.4,0.1,0.5,0.2c0.2,0.1,0.3,0.1,0.4,0.2c0.1,0,0.2,0.1,0.3,0.1c0.1,0,0.2,0,0.2-0.1
		c0.1-0.1,0.1-0.2,0.2-0.4h0.2v2.8h-0.2c0-0.4-0.1-0.7-0.3-1s-0.3-0.5-0.5-0.7s-0.4-0.3-0.7-0.4c-0.3-0.1-0.5-0.1-0.8-0.1
		c-0.2,0-0.4,0-0.6,0.1c-0.2,0.1-0.3,0.2-0.5,0.3c-0.1,0.1-0.2,0.2-0.3,0.4s-0.1,0.3-0.1,0.5c0,0.2,0,0.3,0.1,0.4s0.2,0.3,0.3,0.4
		c0.2,0.1,0.4,0.3,0.6,0.5s0.6,0.4,1,0.6c0.4,0.2,0.7,0.4,1,0.5c0.3,0.2,0.5,0.3,0.6,0.4c0.3,0.2,0.5,0.5,0.6,0.7
		C200.9,79.7,201,80,201,80.4z"/>
</g>
<g class="st0">
	<path class="st2" d="M207.9,82.5h-6.3v-0.2h0.3c0,0,0.1,0,0.1,0c0.1,0,0.1,0,0.2,0c0.1,0,0.1,0,0.2-0.1c0.1,0,0.1-0.1,0.1-0.1
		s0.1-0.1,0.1-0.1c0,0,0.1-0.1,0.1-0.2s0-0.2,0-0.3c0-0.1,0-0.3,0-0.4v-5.3c0-0.3,0-0.5,0-0.6s-0.1-0.3-0.1-0.3
		c-0.1-0.2-0.4-0.2-0.7-0.2h-0.3v-0.2h6.3l0.1,1.8h-0.2c0-0.1-0.1-0.2-0.1-0.3c0-0.1-0.1-0.2-0.1-0.3c0-0.1-0.1-0.2-0.1-0.3
		s-0.1-0.2-0.2-0.2c-0.1-0.1-0.2-0.1-0.4-0.1s-0.4-0.1-0.6-0.1h-2.3V78h1.8c0.3,0,0.5,0,0.7-0.1c0.2,0,0.3-0.1,0.4-0.2
		c0.1-0.1,0.1-0.2,0.2-0.4c0-0.1,0.1-0.3,0.1-0.5h0.2v2.8H207c0-0.2-0.1-0.4-0.1-0.5s-0.1-0.3-0.2-0.4c-0.1-0.1-0.2-0.2-0.4-0.2
		s-0.4-0.1-0.6-0.1h-1.8v3.1c0,0.1,0,0.2,0.1,0.3s0.1,0.1,0.2,0.2c0.1,0,0.2,0.1,0.4,0.1h1.4c0.2,0,0.4,0,0.6,0c0.2,0,0.3,0,0.5-0.1
		s0.3-0.1,0.4-0.2c0.1-0.1,0.2-0.2,0.3-0.3s0.2-0.3,0.3-0.4c0.1-0.2,0.2-0.4,0.3-0.6h0.2L207.9,82.5z"/>
</g>
<g class="st0">
	<path class="st2" d="M216.4,80.5c-0.2,0.4-0.4,0.7-0.6,0.9c-0.2,0.3-0.5,0.5-0.8,0.7c-0.3,0.2-0.6,0.3-0.9,0.4
		c-0.3,0.1-0.7,0.1-1.1,0.1c-0.4,0-0.8-0.1-1.2-0.2s-0.7-0.2-1-0.4c-0.3-0.2-0.6-0.4-0.8-0.7s-0.4-0.5-0.6-0.8
		c-0.2-0.3-0.3-0.6-0.4-1c-0.1-0.3-0.1-0.7-0.1-1.1c0-0.6,0.1-1.2,0.3-1.7c0.2-0.5,0.5-1,0.8-1.4s0.8-0.7,1.3-1
		c0.5-0.2,1.1-0.4,1.7-0.4c0.3,0,0.6,0,0.8,0.1c0.2,0.1,0.4,0.1,0.6,0.2c0.2,0.1,0.3,0.1,0.4,0.2c0.1,0.1,0.2,0.1,0.3,0.1
		c0.1,0,0.2,0,0.3-0.1c0.1-0.1,0.2-0.2,0.2-0.4h0.2l0.2,2.8H216c-0.1-0.4-0.3-0.8-0.5-1.1c-0.2-0.3-0.4-0.5-0.6-0.7
		c-0.2-0.2-0.5-0.3-0.8-0.4c-0.3-0.1-0.6-0.1-0.9-0.1c-0.4,0-0.8,0.1-1.2,0.2c-0.4,0.2-0.7,0.4-0.9,0.7c-0.3,0.3-0.5,0.7-0.6,1.2
		c-0.1,0.5-0.2,1.1-0.2,1.8c0,0.6,0.1,1.1,0.2,1.5s0.4,0.8,0.6,1.1c0.3,0.3,0.6,0.5,1,0.7c0.4,0.2,0.8,0.2,1.3,0.2
		c0.3,0,0.5,0,0.7-0.1c0.2-0.1,0.5-0.1,0.7-0.3c0.2-0.1,0.4-0.3,0.6-0.5c0.2-0.2,0.4-0.5,0.7-0.8L216.4,80.5z"/>
	<path class="st2" d="M223,82.5l-2.8-3.8c-0.1,0-0.2,0-0.3,0s-0.2,0-0.2,0c-0.1,0-0.1,0-0.2,0c-0.1,0-0.1,0-0.2,0V81
		c0,0.5,0.1,0.8,0.2,0.9c0.2,0.2,0.4,0.3,0.7,0.3h0.3v0.2h-3.5v-0.2h0.3c0.4,0,0.6-0.1,0.7-0.3c0.1-0.1,0.1-0.4,0.1-0.9v-5.3
		c0-0.5-0.1-0.8-0.2-1c-0.1-0.1-0.2-0.1-0.3-0.2s-0.2-0.1-0.4-0.1h-0.3v-0.2h3c0.4,0,0.8,0,1.1,0c0.3,0,0.6,0.1,0.8,0.1
		c0.2,0.1,0.4,0.2,0.6,0.3s0.3,0.3,0.5,0.4c0.1,0.2,0.2,0.3,0.3,0.5c0.1,0.2,0.1,0.4,0.1,0.6c0,0.3,0,0.5-0.1,0.7
		c-0.1,0.2-0.2,0.4-0.4,0.6c-0.2,0.2-0.4,0.3-0.6,0.5c-0.3,0.1-0.5,0.2-0.9,0.3l1.7,2.3c0.2,0.3,0.4,0.5,0.5,0.6
		c0.2,0.2,0.3,0.3,0.5,0.4c0.2,0.1,0.3,0.2,0.5,0.2c0.2,0,0.4,0.1,0.6,0.1v0.2H223z M222.1,76.5c0-0.3,0-0.5-0.1-0.7
		c-0.1-0.2-0.2-0.4-0.4-0.5s-0.3-0.3-0.6-0.4c-0.2-0.1-0.5-0.1-0.7-0.1c-0.1,0-0.2,0-0.4,0c-0.2,0-0.3,0-0.5,0.1v3.4h0.3
		c0.4,0,0.7,0,1-0.1s0.5-0.2,0.7-0.4c0.2-0.2,0.3-0.3,0.4-0.6C222,77,222.1,76.8,222.1,76.5z"/>
</g>
<g class="st0">
	<path class="st2" d="M231,82.5h-6.3v-0.2h0.3c0,0,0.1,0,0.1,0c0.1,0,0.1,0,0.2,0c0.1,0,0.1,0,0.2-0.1c0.1,0,0.1-0.1,0.1-0.1
		s0.1-0.1,0.1-0.1c0,0,0.1-0.1,0.1-0.2s0-0.2,0-0.3c0-0.1,0-0.3,0-0.4v-5.3c0-0.3,0-0.5,0-0.6s-0.1-0.3-0.1-0.3
		c-0.1-0.2-0.4-0.2-0.7-0.2h-0.3v-0.2h6.3l0.1,1.8h-0.2c0-0.1-0.1-0.2-0.1-0.3c0-0.1-0.1-0.2-0.1-0.3c0-0.1-0.1-0.2-0.1-0.3
		s-0.1-0.2-0.2-0.2c-0.1-0.1-0.2-0.1-0.4-0.1s-0.4-0.1-0.6-0.1H227V78h1.8c0.3,0,0.5,0,0.7-0.1c0.2,0,0.3-0.1,0.4-0.2
		c0.1-0.1,0.1-0.2,0.2-0.4c0-0.1,0.1-0.3,0.1-0.5h0.2v2.8h-0.2c0-0.2-0.1-0.4-0.1-0.5s-0.1-0.3-0.2-0.4c-0.1-0.1-0.2-0.2-0.4-0.2
		s-0.4-0.1-0.6-0.1H227v3.1c0,0.1,0,0.2,0.1,0.3s0.1,0.1,0.2,0.2c0.1,0,0.2,0.1,0.4,0.1h1.4c0.2,0,0.4,0,0.6,0c0.2,0,0.3,0,0.5-0.1
		s0.3-0.1,0.4-0.2c0.1-0.1,0.2-0.2,0.3-0.3s0.2-0.3,0.3-0.4c0.1-0.2,0.2-0.4,0.3-0.6h0.2L231,82.5z"/>
</g>
<g class="st0">
	<path class="st2" d="M238.6,76.2c0-0.1,0-0.3-0.1-0.4c0-0.1-0.1-0.2-0.1-0.3s-0.1-0.1-0.1-0.2s-0.1-0.1-0.1-0.2
		c-0.1-0.1-0.3-0.2-0.4-0.3c-0.2-0.1-0.4-0.1-0.7-0.1H236V81c0,0.3,0,0.5,0,0.6c0,0.2,0.1,0.3,0.1,0.3c0.1,0.2,0.4,0.2,0.7,0.2h0.3
		v0.2h-3.5v-0.2h0.3c0.2,0,0.3,0,0.4-0.1c0.1,0,0.2-0.1,0.3-0.2c0-0.1,0.1-0.2,0.1-0.3c0-0.1,0-0.3,0-0.6v-6.2h-1
		c-0.2,0-0.3,0-0.4,0c-0.1,0-0.2,0-0.3,0c-0.1,0-0.2,0-0.2,0.1c-0.1,0-0.1,0.1-0.2,0.1c-0.3,0.2-0.5,0.6-0.5,1.2H232l0.1-1.9h6.8
		l0.1,1.9H238.6z"/>
</g>
<g class="st0">
	<path class="st2" d="M243.5,82.5v-0.2c0.3,0,0.5,0,0.6-0.1s0.2-0.2,0.2-0.3s0-0.3-0.1-0.4s-0.1-0.3-0.2-0.5l-0.5-1.2h-3.2l-0.6,1.3
		c-0.1,0.2-0.1,0.3-0.2,0.5c0,0.1,0,0.3,0,0.4c0,0.1,0.1,0.2,0.3,0.2c0.1,0.1,0.4,0.1,0.6,0.1v0.2H238v-0.2c0.2,0,0.3,0,0.5-0.1
		c0.1-0.1,0.2-0.2,0.3-0.3s0.2-0.3,0.3-0.4c0.1-0.2,0.2-0.4,0.3-0.6l2.9-6.7h0.2l2.8,6.8c0.1,0.3,0.2,0.5,0.3,0.7
		c0.1,0.2,0.2,0.3,0.3,0.4s0.2,0.2,0.3,0.2c0.1,0,0.3,0.1,0.4,0.1v0.2H243.5z M242,76l-1.4,3.3h2.8L242,76z"/>
</g>
<g class="st0">
	<path class="st2" d="M251.7,82.5l-2.8-3.8c-0.1,0-0.2,0-0.3,0s-0.2,0-0.2,0c-0.1,0-0.1,0-0.2,0c-0.1,0-0.1,0-0.2,0V81
		c0,0.5,0.1,0.8,0.2,0.9c0.2,0.2,0.4,0.3,0.7,0.3h0.3v0.2h-3.5v-0.2h0.3c0.4,0,0.6-0.1,0.7-0.3c0.1-0.1,0.1-0.4,0.1-0.9v-5.3
		c0-0.5-0.1-0.8-0.2-1c-0.1-0.1-0.2-0.1-0.3-0.2s-0.2-0.1-0.4-0.1h-0.3v-0.2h3c0.4,0,0.8,0,1.1,0c0.3,0,0.6,0.1,0.8,0.1
		c0.2,0.1,0.4,0.2,0.6,0.3s0.3,0.3,0.5,0.4c0.1,0.2,0.2,0.3,0.3,0.5c0.1,0.2,0.1,0.4,0.1,0.6c0,0.3,0,0.5-0.1,0.7
		c-0.1,0.2-0.2,0.4-0.4,0.6c-0.2,0.2-0.4,0.3-0.6,0.5c-0.3,0.1-0.5,0.2-0.9,0.3l1.7,2.3c0.2,0.3,0.4,0.5,0.5,0.6
		c0.2,0.2,0.3,0.3,0.5,0.4c0.2,0.1,0.3,0.2,0.5,0.2c0.2,0,0.4,0.1,0.6,0.1v0.2H251.7z M250.8,76.5c0-0.3,0-0.5-0.1-0.7
		c-0.1-0.2-0.2-0.4-0.4-0.5s-0.3-0.3-0.6-0.4c-0.2-0.1-0.5-0.1-0.7-0.1c-0.1,0-0.2,0-0.4,0c-0.2,0-0.3,0-0.5,0.1v3.4h0.3
		c0.4,0,0.7,0,1-0.1s0.5-0.2,0.7-0.4c0.2-0.2,0.3-0.3,0.4-0.6C250.7,77,250.8,76.8,250.8,76.5z"/>
</g>
<g class="st0">
	<path class="st2" d="M253.8,82.5v-0.2h0.3c0.2,0,0.3,0,0.4-0.1c0.1,0,0.2-0.1,0.3-0.2c0.1-0.1,0.1-0.4,0.1-0.9v-5.3
		c0-0.1,0-0.3,0-0.4c0-0.1,0-0.2,0-0.3c0-0.1,0-0.1,0-0.2s0-0.1-0.1-0.1c-0.1-0.1-0.2-0.2-0.3-0.2c-0.1-0.1-0.3-0.1-0.4-0.1h-0.3
		v-0.2h3.5v0.2H257c-0.3,0-0.6,0.1-0.7,0.3c0,0.1-0.1,0.2-0.1,0.3c0,0.2,0,0.3,0,0.6V81c0,0.3,0,0.5,0,0.6c0,0.1,0.1,0.3,0.1,0.3
		c0,0,0.1,0.1,0.1,0.1c0.1,0,0.1,0.1,0.2,0.1s0.1,0,0.2,0.1c0.1,0,0.1,0,0.2,0h0.3v0.2H253.8z"/>
</g>
<g class="st0">
	<path class="st2" d="M262.9,82.5v-0.2c0.3,0,0.5,0,0.6-0.1s0.2-0.2,0.2-0.3c0-0.1,0-0.3-0.1-0.4c-0.1-0.2-0.1-0.3-0.2-0.5l-0.5-1.2
		h-3.2l-0.6,1.3c-0.1,0.2-0.1,0.3-0.2,0.5c0,0.1,0,0.3,0,0.4c0,0.1,0.1,0.2,0.3,0.2c0.1,0.1,0.4,0.1,0.6,0.1v0.2h-2.6v-0.2
		c0.2,0,0.3,0,0.5-0.1c0.1-0.1,0.2-0.2,0.3-0.3c0.1-0.1,0.2-0.3,0.3-0.4s0.2-0.4,0.3-0.6l2.9-6.7h0.2l2.8,6.8
		c0.1,0.3,0.2,0.5,0.3,0.7c0.1,0.2,0.2,0.3,0.3,0.4c0.1,0.1,0.2,0.2,0.3,0.2c0.1,0,0.3,0.1,0.4,0.1v0.2H262.9z M261.4,76l-1.4,3.3
		h2.8L261.4,76z"/>
</g>
<g class="st0">
	<path class="st2" d="M272.2,76.2c0-0.1,0-0.3-0.1-0.4c0-0.1-0.1-0.2-0.1-0.3s-0.1-0.1-0.1-0.2s-0.1-0.1-0.1-0.2
		c-0.1-0.1-0.3-0.2-0.4-0.3c-0.2-0.1-0.4-0.1-0.7-0.1h-1.2V81c0,0.3,0,0.5,0,0.6s0.1,0.3,0.1,0.3c0.1,0.2,0.4,0.2,0.7,0.2h0.3v0.2
		h-3.5v-0.2h0.3c0.2,0,0.3,0,0.4-0.1c0.1,0,0.2-0.1,0.3-0.2c0-0.1,0.1-0.2,0.1-0.3c0-0.1,0-0.3,0-0.6v-6.2h-1c-0.2,0-0.3,0-0.4,0
		c-0.1,0-0.2,0-0.3,0c-0.1,0-0.2,0-0.2,0.1c-0.1,0-0.1,0.1-0.2,0.1c-0.3,0.2-0.5,0.6-0.5,1.2h-0.3l0.1-1.9h6.8l0.1,1.9H272.2z"/>
</g>
<rect x="281.2" y="0.4" class="st2" width="2.5" height="84.9"/>
<g>
	<g class="st0">
		<path class="st2" d="M303.3,21.5c0,0.6-0.1,1.1-0.4,1.6c-0.2,0.5-0.6,1-1,1.4s-0.9,0.7-1.5,0.9s-1.2,0.3-1.9,0.3
			c-0.5,0-1,0-1.4-0.1s-0.8-0.2-1.1-0.3c-0.3-0.1-0.6-0.2-0.9-0.3c-0.3-0.1-0.5-0.1-0.7-0.1s-0.3,0.1-0.4,0.2
			c-0.1,0.1-0.2,0.4-0.2,0.7h-0.4v-5.2h0.4c0.1,0.8,0.3,1.5,0.6,2c0.3,0.5,0.6,1,1,1.3c0.4,0.3,0.9,0.6,1.4,0.8
			c0.5,0.2,1,0.2,1.6,0.2c0.5,0,0.9-0.1,1.3-0.2s0.7-0.3,1-0.5c0.3-0.2,0.5-0.5,0.6-0.8c0.1-0.3,0.2-0.6,0.2-1c0-0.4-0.1-0.7-0.2-1
			c-0.1-0.3-0.3-0.6-0.6-0.8s-0.7-0.5-1.1-0.8c-0.5-0.3-1-0.6-1.7-1c-0.9-0.5-1.6-1-2.2-1.4c-0.6-0.4-1-0.8-1.4-1.2
			c-0.3-0.4-0.6-0.7-0.7-1.1c-0.1-0.4-0.2-0.8-0.2-1.3c0-0.5,0.1-1.1,0.3-1.5c0.2-0.5,0.5-0.9,0.9-1.3c0.4-0.4,0.9-0.7,1.4-0.9
			c0.5-0.2,1.2-0.3,1.8-0.3c0.4,0,0.8,0,1.2,0.1c0.4,0.1,0.7,0.2,1,0.3c0.3,0.1,0.5,0.2,0.8,0.3c0.2,0.1,0.4,0.1,0.6,0.1
			c0.2,0,0.3-0.1,0.4-0.2c0.1-0.1,0.2-0.3,0.3-0.7h0.4v5.3h-0.4c-0.1-0.7-0.2-1.4-0.5-1.9c-0.2-0.5-0.6-1-0.9-1.4
			c-0.4-0.4-0.8-0.6-1.3-0.8c-0.5-0.2-1-0.3-1.5-0.3c-0.4,0-0.7,0.1-1,0.2c-0.3,0.1-0.6,0.3-0.8,0.5c-0.2,0.2-0.4,0.5-0.6,0.7
			c-0.1,0.3-0.2,0.6-0.2,0.9c0,0.3,0.1,0.6,0.2,0.8s0.3,0.5,0.6,0.8c0.3,0.3,0.7,0.6,1.2,0.9c0.5,0.3,1.1,0.7,1.9,1.1
			c0.7,0.4,1.3,0.7,1.8,1s0.8,0.5,1.1,0.7c0.5,0.4,0.9,0.8,1.2,1.4C303.2,20.3,303.3,20.9,303.3,21.5z"/>
	</g>
	<g class="st0">
		<path class="st2" d="M316.4,13.8c0-0.3-0.1-0.5-0.1-0.7s-0.1-0.4-0.2-0.5c-0.1-0.1-0.1-0.3-0.2-0.4c-0.1-0.1-0.2-0.2-0.2-0.3
			c-0.2-0.3-0.5-0.4-0.8-0.6c-0.3-0.1-0.7-0.2-1.2-0.2h-2.2v11.6c0,0.5,0,0.9,0.1,1.2c0.1,0.3,0.1,0.5,0.2,0.6
			c0.3,0.3,0.7,0.5,1.3,0.5h0.5v0.4h-6.5V25h0.6c0.3,0,0.6,0,0.8-0.1c0.2-0.1,0.4-0.2,0.6-0.4c0.1-0.1,0.1-0.3,0.2-0.6
			s0.1-0.6,0.1-1.1V11.1h-1.8c-0.3,0-0.6,0-0.8,0c-0.2,0-0.4,0-0.5,0.1c-0.2,0-0.3,0.1-0.4,0.1c-0.1,0.1-0.2,0.1-0.3,0.2
			c-0.5,0.4-0.9,1.1-1,2.2h-0.5l0.2-3.6h12.6l0.1,3.6H316.4z"/>
		<path class="st2" d="M327.9,25.4l-5.2-7.1c-0.2,0-0.4,0-0.5,0c-0.1,0-0.3,0-0.4,0c-0.1,0-0.2,0-0.3,0s-0.2,0-0.4,0v4.4
			c0,1,0.1,1.6,0.3,1.8c0.3,0.3,0.7,0.5,1.3,0.5h0.6v0.4h-6.5V25h0.6c0.7,0,1.1-0.2,1.4-0.6c0.2-0.2,0.2-0.8,0.2-1.7v-9.8
			c0-0.9-0.1-1.5-0.3-1.8c-0.2-0.2-0.3-0.3-0.6-0.4c-0.2-0.1-0.5-0.1-0.7-0.1h-0.6v-0.4h5.5c0.8,0,1.5,0,2.1,0.1
			c0.6,0.1,1.1,0.1,1.5,0.3c0.4,0.1,0.8,0.3,1.1,0.5c0.3,0.2,0.6,0.5,0.9,0.8s0.4,0.6,0.6,1s0.2,0.8,0.2,1.2c0,0.5-0.1,0.9-0.2,1.3
			c-0.2,0.4-0.4,0.8-0.7,1.1c-0.3,0.3-0.7,0.6-1.2,0.9c-0.5,0.3-1,0.4-1.7,0.6l3.1,4.4c0.3,0.5,0.7,0.9,1,1.2s0.6,0.6,0.9,0.8
			c0.3,0.2,0.6,0.3,0.9,0.4c0.3,0.1,0.7,0.2,1.1,0.2v0.4H327.9z M326.2,14.3c0-0.5-0.1-0.9-0.2-1.3c-0.2-0.4-0.4-0.7-0.7-1
			c-0.3-0.3-0.6-0.5-1-0.7s-0.9-0.2-1.4-0.3c-0.2,0-0.4,0-0.7,0.1c-0.3,0-0.6,0.1-1,0.1v6.4h0.6c0.7,0,1.4-0.1,1.9-0.2
			c0.5-0.2,1-0.4,1.4-0.7c0.4-0.3,0.6-0.6,0.8-1S326.2,14.7,326.2,14.3z"/>
		<path class="st2" d="M341.1,25.4V25c0.5,0,0.9-0.1,1.1-0.2c0.2-0.1,0.4-0.3,0.4-0.6c0-0.2,0-0.5-0.1-0.8c-0.1-0.3-0.2-0.6-0.3-0.9
			l-0.9-2.2h-5.9l-1,2.4c-0.1,0.3-0.3,0.6-0.3,0.9c-0.1,0.3-0.1,0.5,0,0.7c0.1,0.2,0.3,0.3,0.5,0.4s0.7,0.2,1.2,0.2v0.4H331V25
			c0.3,0,0.6-0.1,0.8-0.2c0.2-0.1,0.5-0.3,0.6-0.5c0.2-0.2,0.4-0.5,0.5-0.8c0.2-0.3,0.3-0.7,0.5-1.1l5.3-12.6h0.4l5.3,12.7
			c0.2,0.5,0.4,1,0.6,1.3s0.4,0.6,0.6,0.7c0.2,0.2,0.4,0.3,0.6,0.4s0.5,0.1,0.8,0.1v0.4H341.1z M338.4,13.3l-2.7,6.2h5.2L338.4,13.3
			z"/>
		<path class="st2" d="M359.3,13.8c0-0.3-0.1-0.5-0.1-0.7s-0.1-0.4-0.2-0.5c-0.1-0.1-0.1-0.3-0.2-0.4c-0.1-0.1-0.2-0.2-0.2-0.3
			c-0.2-0.3-0.5-0.4-0.8-0.6c-0.3-0.1-0.7-0.2-1.2-0.2h-2.2v11.6c0,0.5,0,0.9,0.1,1.2c0.1,0.3,0.1,0.5,0.2,0.6
			c0.3,0.3,0.7,0.5,1.3,0.5h0.5v0.4h-6.5V25h0.5c0.3,0,0.6,0,0.8-0.1c0.2-0.1,0.4-0.2,0.5-0.4c0.1-0.1,0.1-0.3,0.2-0.6
			c0-0.3,0.1-0.6,0.1-1.1V11.1h-1.8c-0.3,0-0.6,0-0.8,0c-0.2,0-0.4,0-0.5,0.1s-0.3,0.1-0.4,0.1c-0.1,0.1-0.2,0.1-0.3,0.2
			c-0.5,0.4-0.9,1.1-1,2.2h-0.5l0.2-3.6h12.6l0.1,3.6H359.3z"/>
		<path class="st2" d="M371.6,25.4h-11.7V25h0.5c0.1,0,0.2,0,0.3,0c0.1,0,0.2,0,0.3-0.1s0.2-0.1,0.3-0.1s0.2-0.1,0.3-0.2
			c0.1-0.1,0.1-0.1,0.2-0.2c0.1-0.1,0.1-0.2,0.1-0.3c0-0.1,0.1-0.3,0.1-0.5c0-0.2,0-0.5,0-0.8v-9.9c0-0.5,0-0.9-0.1-1.2
			c-0.1-0.3-0.1-0.5-0.2-0.6c-0.3-0.3-0.7-0.5-1.4-0.5h-0.5v-0.4h11.7l0.2,3.3h-0.4c-0.1-0.2-0.1-0.4-0.1-0.6s-0.1-0.4-0.2-0.6
			c-0.1-0.2-0.2-0.4-0.3-0.5s-0.3-0.3-0.5-0.4c-0.2-0.1-0.4-0.2-0.8-0.3c-0.3-0.1-0.7-0.1-1.1-0.1h-4.2v6h3.4c0.5,0,0.9,0,1.2-0.1
			c0.3-0.1,0.5-0.2,0.7-0.4s0.3-0.4,0.3-0.7c0.1-0.3,0.1-0.6,0.2-1h0.4v5.3h-0.4c-0.1-0.4-0.1-0.7-0.2-1s-0.2-0.5-0.3-0.7
			s-0.4-0.3-0.7-0.4s-0.7-0.1-1.2-0.1h-3.4v5.7c0,0.2,0,0.4,0.1,0.5c0.1,0.2,0.2,0.3,0.4,0.4s0.4,0.1,0.8,0.1h2.6c0.4,0,0.8,0,1.1,0
			c0.3,0,0.6-0.1,0.8-0.2c0.3-0.1,0.5-0.2,0.7-0.3c0.2-0.1,0.4-0.3,0.6-0.6c0.2-0.2,0.4-0.5,0.6-0.8c0.2-0.3,0.4-0.7,0.7-1.1h0.5
			L371.6,25.4z"/>
		<path class="st2" d="M388.4,17.5c-0.3,0-0.6,0-0.8,0.2c-0.2,0.1-0.3,0.2-0.4,0.4c-0.1,0.1-0.1,0.3-0.2,0.6c0,0.3-0.1,0.6-0.1,1
			v4.6c-0.8,0.5-1.7,0.8-2.6,1c-0.9,0.2-1.8,0.3-2.8,0.3c-1.3,0-2.5-0.2-3.5-0.6c-1-0.4-1.9-0.9-2.7-1.6c-0.7-0.7-1.3-1.5-1.7-2.5
			s-0.6-2-0.6-3c0-0.6,0.1-1.3,0.2-1.9c0.2-0.6,0.4-1.3,0.7-1.9c0.3-0.6,0.7-1.2,1.1-1.7c0.5-0.5,1-1,1.6-1.4c0.6-0.4,1.3-0.7,2-0.9
			c0.7-0.2,1.5-0.3,2.4-0.3c0.6,0,1.2,0.1,1.7,0.2c0.5,0.1,0.9,0.2,1.2,0.3c0.3,0.1,0.6,0.2,0.9,0.3c0.2,0.1,0.4,0.2,0.5,0.2
			c0,0,0.1,0,0.2,0c0.1,0,0.1-0.1,0.2-0.2c0.1-0.1,0.1-0.2,0.1-0.3c0-0.1,0.1-0.3,0.1-0.5h0.4l0.4,4.8h-0.4
			c-0.2-0.7-0.5-1.3-0.9-1.9s-0.7-0.9-1.2-1.2c-0.4-0.3-0.9-0.6-1.4-0.7c-0.5-0.1-1-0.2-1.6-0.2c-0.9,0-1.7,0.2-2.4,0.5
			c-0.7,0.4-1.3,0.8-1.8,1.5c-0.5,0.6-0.8,1.4-1.1,2.2s-0.4,1.8-0.4,2.7c0,0.7,0.1,1.4,0.2,2.1s0.3,1.3,0.6,1.8
			c0.2,0.6,0.5,1.1,0.9,1.5c0.4,0.4,0.8,0.8,1.2,1.1c0.4,0.3,0.9,0.5,1.4,0.7c0.5,0.2,1,0.2,1.6,0.2c0.5,0,1.1-0.1,1.6-0.2
			c0.5-0.1,1-0.3,1.5-0.7v-4.4c0-0.5,0-0.9-0.1-1.2c-0.1-0.3-0.2-0.5-0.3-0.7c-0.1-0.2-0.3-0.3-0.6-0.3c-0.3-0.1-0.6-0.1-1-0.1v-0.4
			h5.9v0.4H388.4z"/>
		<path class="st2" d="M404,10.6c-0.1,0-0.2,0-0.4,0.1c-0.2,0-0.3,0.1-0.5,0.2c-0.2,0.1-0.3,0.2-0.5,0.3c-0.2,0.1-0.4,0.3-0.5,0.5
			c-0.2,0.2-0.3,0.4-0.5,0.7s-0.4,0.6-0.6,0.9l-3.7,5.8v3.8c0,1,0.1,1.6,0.3,1.8c0.3,0.3,0.7,0.5,1.4,0.5h0.5v0.4H393V25h0.5
			c0.3,0,0.6,0,0.8-0.1c0.2-0.1,0.4-0.2,0.6-0.4c0.1-0.1,0.1-0.3,0.2-0.6c0-0.3,0.1-0.6,0.1-1.1v-3.6l-4.2-6.4
			c-0.2-0.4-0.5-0.7-0.6-0.9c-0.2-0.3-0.4-0.5-0.6-0.6c-0.2-0.1-0.4-0.3-0.7-0.4s-0.6-0.2-0.9-0.2v-0.4h6.5v0.4h-0.3
			c-0.1,0-0.2,0-0.4,0c-0.2,0-0.3,0.1-0.5,0.1c-0.1,0.1-0.3,0.2-0.4,0.3c-0.1,0.1-0.2,0.3-0.2,0.5c0,0.1,0.1,0.3,0.2,0.6
			c0.1,0.2,0.3,0.6,0.5,0.9l3.2,4.9l3-4.7c0.2-0.3,0.3-0.5,0.4-0.7c0.1-0.2,0.2-0.4,0.2-0.6c0-0.2,0.1-0.3,0-0.5
			c0-0.1-0.1-0.3-0.2-0.4c-0.1-0.1-0.2-0.3-0.4-0.4c-0.2-0.1-0.5-0.2-0.9-0.2v-0.4h5.3v0.4H404z"/>
	</g>
	<g class="st0">
		<path class="st2" d="M424.4,17.5c-0.3,0-0.6,0-0.8,0.2c-0.2,0.1-0.3,0.2-0.4,0.4c-0.1,0.1-0.1,0.3-0.2,0.6c0,0.3-0.1,0.6-0.1,1
			v4.6c-0.8,0.5-1.7,0.8-2.6,1s-1.8,0.3-2.8,0.3c-1.3,0-2.5-0.2-3.5-0.6s-1.9-0.9-2.7-1.6s-1.3-1.5-1.7-2.5s-0.6-2-0.6-3
			c0-0.6,0.1-1.3,0.2-1.9c0.2-0.6,0.4-1.3,0.7-1.9c0.3-0.6,0.7-1.2,1.1-1.7c0.5-0.5,1-1,1.6-1.4c0.6-0.4,1.3-0.7,2-0.9
			c0.7-0.2,1.5-0.3,2.4-0.3c0.6,0,1.2,0.1,1.7,0.2c0.5,0.1,0.9,0.2,1.2,0.3c0.3,0.1,0.6,0.2,0.9,0.3c0.2,0.1,0.4,0.2,0.6,0.2
			c0,0,0.1,0,0.2,0c0.1,0,0.1-0.1,0.2-0.2c0.1-0.1,0.1-0.2,0.1-0.3c0-0.1,0.1-0.3,0.1-0.5h0.4l0.4,4.8h-0.4
			c-0.2-0.7-0.5-1.3-0.9-1.9s-0.7-0.9-1.2-1.2c-0.4-0.3-0.9-0.6-1.4-0.7c-0.5-0.1-1-0.2-1.6-0.2c-0.9,0-1.7,0.2-2.4,0.5
			s-1.3,0.8-1.8,1.5c-0.5,0.6-0.8,1.4-1.1,2.2c-0.2,0.8-0.4,1.8-0.4,2.7c0,0.7,0.1,1.4,0.2,2.1s0.3,1.3,0.6,1.8
			c0.2,0.6,0.5,1.1,0.9,1.5c0.4,0.4,0.8,0.8,1.2,1.1c0.4,0.3,0.9,0.5,1.4,0.7c0.5,0.2,1,0.2,1.6,0.2c0.5,0,1.1-0.1,1.6-0.2
			c0.5-0.1,1-0.3,1.5-0.7v-4.4c0-0.5,0-0.9-0.1-1.2c-0.1-0.3-0.2-0.5-0.3-0.7c-0.1-0.2-0.3-0.3-0.6-0.3c-0.3-0.1-0.6-0.1-1-0.1v-0.4
			h5.9v0.4H424.4z"/>
		<path class="st2" d="M435.5,25.4l-5.2-7.1c-0.2,0-0.4,0-0.5,0c-0.1,0-0.3,0-0.4,0c-0.1,0-0.2,0-0.3,0c-0.1,0-0.2,0-0.4,0v4.4
			c0,1,0.1,1.6,0.3,1.8c0.3,0.3,0.7,0.5,1.3,0.5h0.6v0.4h-6.5V25h0.6c0.7,0,1.1-0.2,1.4-0.6c0.1-0.2,0.2-0.8,0.2-1.7v-9.8
			c0-0.9-0.1-1.5-0.3-1.8c-0.2-0.2-0.3-0.3-0.6-0.4c-0.2-0.1-0.5-0.1-0.7-0.1h-0.6v-0.4h5.5c0.8,0,1.5,0,2.1,0.1
			c0.6,0.1,1.1,0.1,1.5,0.3c0.4,0.1,0.8,0.3,1.1,0.5c0.3,0.2,0.6,0.5,0.9,0.8c0.2,0.3,0.4,0.6,0.6,1s0.2,0.8,0.2,1.2
			c0,0.5-0.1,0.9-0.2,1.3c-0.1,0.4-0.4,0.8-0.7,1.1c-0.3,0.3-0.7,0.6-1.2,0.9c-0.5,0.3-1,0.4-1.7,0.6l3.1,4.4c0.3,0.5,0.7,0.9,1,1.2
			s0.6,0.6,0.9,0.8c0.3,0.2,0.6,0.3,0.9,0.4c0.3,0.1,0.7,0.2,1.1,0.2v0.4H435.5z M433.8,14.3c0-0.5-0.1-0.9-0.2-1.3
			c-0.2-0.4-0.4-0.7-0.7-1c-0.3-0.3-0.6-0.5-1-0.7S431,11,430.5,11c-0.2,0-0.4,0-0.7,0.1c-0.3,0-0.6,0.1-1,0.1v6.4h0.6
			c0.7,0,1.4-0.1,1.9-0.2c0.6-0.2,1-0.4,1.4-0.7c0.4-0.3,0.6-0.6,0.8-1S433.8,14.7,433.8,14.3z"/>
		<path class="st2" d="M454.1,17.7c0,0.8-0.1,1.5-0.3,2.2c-0.2,0.7-0.4,1.3-0.7,1.9c-0.3,0.6-0.7,1.1-1.2,1.6
			c-0.4,0.5-1,0.9-1.5,1.2c-0.6,0.3-1.2,0.6-1.8,0.8c-0.6,0.2-1.3,0.3-2,0.3c-1,0-2-0.2-2.9-0.6c-0.9-0.4-1.7-0.9-2.4-1.6
			c-0.7-0.7-1.2-1.5-1.6-2.5c-0.4-1-0.6-2.1-0.6-3.3c0-1.1,0.2-2.2,0.6-3.2s0.9-1.8,1.6-2.5c0.7-0.7,1.5-1.3,2.4-1.7
			c0.9-0.4,1.9-0.6,3-0.6c0.7,0,1.3,0.1,1.9,0.3c0.6,0.2,1.2,0.4,1.7,0.8s1,0.7,1.5,1.2c0.4,0.5,0.8,1,1.1,1.6s0.6,1.2,0.7,1.9
			C454,16.2,454.1,16.9,454.1,17.7z M451.6,18c0-1.2-0.1-2.2-0.3-3.1c-0.2-0.9-0.5-1.7-0.9-2.3s-0.9-1.1-1.6-1.4s-1.4-0.5-2.2-0.5
			c-0.8,0-1.4,0.2-2,0.5c-0.6,0.3-1.1,0.8-1.5,1.4s-0.7,1.4-0.9,2.2s-0.3,1.9-0.3,2.9c0,1.1,0.1,2.1,0.3,3c0.2,0.9,0.5,1.7,0.9,2.3
			c0.4,0.6,0.9,1.1,1.5,1.5c0.6,0.4,1.3,0.5,2.1,0.5c0.7,0,1.4-0.1,2-0.4s1.1-0.7,1.6-1.3c0.4-0.6,0.8-1.3,1-2.2
			C451.4,20.2,451.6,19.2,451.6,18z"/>
	</g>
	<g class="st0">
		<path class="st2" d="M469.5,10.6c-0.3,0-0.6,0.1-0.8,0.2c-0.2,0.1-0.4,0.3-0.6,0.6c-0.1,0.1-0.2,0.3-0.2,0.5c0,0.3-0.1,0.6-0.1,1
			v6.2c0,0.5,0,1-0.1,1.5c0,0.5-0.1,0.9-0.2,1.3c-0.1,0.4-0.2,0.8-0.4,1.2c-0.2,0.4-0.4,0.7-0.7,1c-0.3,0.3-0.6,0.5-0.9,0.8
			c-0.3,0.2-0.6,0.4-1,0.5s-0.8,0.2-1.2,0.3c-0.4,0.1-0.9,0.1-1.5,0.1c-1,0-1.9-0.1-2.6-0.3c-0.7-0.2-1.3-0.5-1.7-0.9
			c-0.4-0.4-0.8-0.8-1-1.3s-0.4-1-0.5-1.5c-0.1-0.5-0.1-1-0.2-1.5c0-0.5,0-1,0-1.3v-6c0-0.5,0-0.9-0.1-1.2c-0.1-0.3-0.2-0.5-0.3-0.7
			c-0.1-0.2-0.3-0.3-0.5-0.3c-0.2-0.1-0.5-0.1-0.8-0.1H454v-0.4h6.1v0.4h-0.6c-0.3,0-0.5,0-0.7,0.1c-0.2,0.1-0.3,0.2-0.4,0.4
			c-0.1,0.1-0.2,0.4-0.2,0.6c-0.1,0.3-0.1,0.6-0.1,1v6.6c0,0.3,0,0.7,0,1.1c0,0.4,0.1,0.8,0.1,1.2c0.1,0.4,0.2,0.8,0.4,1.1
			c0.2,0.4,0.4,0.7,0.7,1s0.7,0.5,1.1,0.7c0.4,0.2,1,0.3,1.6,0.3c0.5,0,0.9,0,1.3-0.1c0.4-0.1,0.7-0.2,1-0.4
			c0.3-0.1,0.6-0.3,0.8-0.4c0.2-0.2,0.4-0.3,0.5-0.4c0.2-0.2,0.4-0.4,0.5-0.6c0.1-0.2,0.2-0.5,0.3-0.8c0.1-0.3,0.1-0.6,0.2-0.9
			c0-0.3,0.1-0.6,0.1-0.8c0-0.3,0-0.5,0-0.7v-6.7c0-0.5,0-0.9-0.1-1.2c0-0.3-0.1-0.5-0.2-0.6c-0.3-0.3-0.7-0.5-1.3-0.5h-0.6v-0.4
			h5.4v0.4H469.5z"/>
	</g>
	<g class="st0">
		<path class="st2" d="M481,14.4c0,0.6-0.1,1.1-0.3,1.6c-0.2,0.5-0.5,1-0.9,1.3c-0.4,0.4-1,0.7-1.6,0.9s-1.5,0.3-2.5,0.3h-0.4
			c-0.1,0-0.2,0-0.4,0s-0.3,0-0.5,0c-0.2,0-0.4,0-0.7-0.1v4.2c0,0.5,0,0.9,0.1,1.2c0,0.3,0.1,0.5,0.3,0.6c0.3,0.3,0.7,0.5,1.3,0.5
			h0.6v0.4h-6.5V25h0.5c0.3,0,0.6,0,0.8-0.1c0.2-0.1,0.4-0.3,0.6-0.5c0.1-0.1,0.1-0.3,0.2-0.6s0.1-0.6,0.1-1.1v-9.8
			c0-0.9-0.1-1.5-0.3-1.8c-0.1-0.2-0.3-0.3-0.5-0.4c-0.2-0.1-0.5-0.1-0.8-0.1h-0.5v-0.4h5.5c0.4,0,0.8,0,1.2,0
			c0.4,0,0.8,0.1,1.2,0.1c0.4,0.1,0.7,0.2,1.1,0.3c0.3,0.1,0.6,0.3,0.9,0.5c0.2,0.2,0.5,0.4,0.7,0.6c0.2,0.2,0.4,0.5,0.6,0.7
			c0.2,0.3,0.3,0.6,0.4,0.9S481,14,481,14.4z M478.4,14.6c0-0.5-0.1-0.9-0.2-1.3s-0.3-0.8-0.6-1.1c-0.3-0.3-0.6-0.6-1-0.8
			c-0.4-0.2-0.9-0.3-1.4-0.3c-0.2,0-0.4,0-0.6,0.1s-0.5,0.1-0.8,0.2v6.4c0.4,0.1,0.7,0.1,1,0.1s0.6,0,0.8,0c0.4,0,0.8-0.1,1.1-0.2
			c0.3-0.2,0.7-0.4,0.9-0.7c0.3-0.3,0.5-0.6,0.6-1C478.3,15.6,478.4,15.1,478.4,14.6z"/>
	</g>
	<g class="st0">
		<path class="st2" d="M303.8,39.6c0,0.6-0.1,1.1-0.3,1.6s-0.5,1-0.9,1.3c-0.4,0.4-1,0.7-1.6,0.9c-0.7,0.2-1.5,0.3-2.5,0.3H298
			c-0.1,0-0.2,0-0.4,0s-0.3,0-0.5,0s-0.4,0-0.7-0.1v4.2c0,0.5,0,0.9,0.1,1.2c0,0.3,0.1,0.5,0.3,0.6c0.3,0.3,0.7,0.5,1.3,0.5h0.6v0.4
			h-6.5v-0.4h0.5c0.3,0,0.6,0,0.8-0.1c0.2-0.1,0.4-0.3,0.5-0.5c0.1-0.1,0.1-0.3,0.2-0.6s0.1-0.6,0.1-1.1v-9.8c0-0.9-0.1-1.5-0.3-1.8
			c-0.1-0.2-0.3-0.3-0.5-0.4c-0.2-0.1-0.5-0.1-0.8-0.1h-0.5v-0.4h5.5c0.4,0,0.8,0,1.2,0c0.4,0,0.8,0.1,1.2,0.1
			c0.4,0.1,0.7,0.2,1.1,0.3c0.3,0.1,0.6,0.3,0.9,0.5c0.2,0.2,0.5,0.4,0.7,0.6c0.2,0.2,0.4,0.5,0.6,0.7c0.2,0.3,0.3,0.6,0.4,0.9
			S303.8,39.2,303.8,39.6z M301.2,39.8c0-0.5-0.1-0.9-0.2-1.3c-0.1-0.4-0.3-0.8-0.6-1.1c-0.3-0.3-0.6-0.6-1-0.8
			c-0.4-0.2-0.9-0.3-1.4-0.3c-0.2,0-0.4,0-0.6,0.1c-0.2,0-0.5,0.1-0.8,0.2v6.4c0.4,0.1,0.7,0.1,1,0.1s0.6,0,0.8,0
			c0.4,0,0.8-0.1,1.1-0.2s0.7-0.4,0.9-0.7c0.3-0.3,0.5-0.6,0.6-1C301.1,40.8,301.2,40.3,301.2,39.8z"/>
	</g>
	<g class="st0">
		<path class="st2" d="M314.9,50.6l-5.2-7.1c-0.2,0-0.4,0-0.5,0c-0.1,0-0.3,0-0.4,0c-0.1,0-0.2,0-0.3,0s-0.2,0-0.4,0v4.4
			c0,1,0.1,1.6,0.3,1.8c0.3,0.3,0.7,0.5,1.3,0.5h0.6v0.4h-6.5v-0.4h0.6c0.7,0,1.1-0.2,1.4-0.6c0.2-0.2,0.2-0.8,0.2-1.7v-9.8
			c0-0.9-0.1-1.5-0.3-1.8c-0.2-0.2-0.3-0.3-0.6-0.4c-0.2-0.1-0.5-0.1-0.7-0.1h-0.6v-0.4h5.5c0.8,0,1.5,0,2.1,0.1
			c0.6,0.1,1.1,0.1,1.5,0.3c0.4,0.1,0.8,0.3,1.1,0.5c0.3,0.2,0.6,0.5,0.9,0.8s0.4,0.6,0.6,1s0.2,0.8,0.2,1.2c0,0.5-0.1,0.9-0.2,1.3
			c-0.2,0.4-0.4,0.8-0.7,1.1c-0.3,0.3-0.7,0.6-1.2,0.9c-0.5,0.3-1,0.4-1.7,0.6l3.1,4.4c0.3,0.5,0.7,0.9,1,1.2s0.6,0.6,0.9,0.8
			c0.3,0.2,0.6,0.3,0.9,0.4c0.3,0.1,0.7,0.2,1.1,0.2v0.4H314.9z M313.2,39.5c0-0.5-0.1-0.9-0.2-1.3c-0.2-0.4-0.4-0.7-0.7-1
			c-0.3-0.3-0.6-0.5-1-0.7s-0.9-0.2-1.4-0.3c-0.2,0-0.4,0-0.7,0.1c-0.3,0-0.6,0.1-1,0.1v6.4h0.6c0.7,0,1.4-0.1,1.9-0.2
			c0.5-0.2,1-0.4,1.4-0.7c0.4-0.3,0.6-0.6,0.8-1S313.2,40,313.2,39.5z"/>
	</g>
	<g class="st0">
		<path class="st2" d="M318.2,50.6v-0.4h0.6c0.3,0,0.6,0,0.8-0.1c0.2-0.1,0.4-0.2,0.6-0.4c0.2-0.2,0.3-0.8,0.3-1.7v-9.8
			c0-0.3,0-0.5,0-0.7s0-0.3,0-0.5c0-0.1,0-0.2-0.1-0.3c0-0.1-0.1-0.2-0.1-0.2c-0.1-0.2-0.3-0.3-0.6-0.4c-0.3-0.1-0.5-0.2-0.8-0.2
			h-0.6v-0.4h6.5v0.4h-0.5c-0.6,0-1,0.2-1.3,0.6c-0.1,0.1-0.2,0.3-0.2,0.6c-0.1,0.3-0.1,0.7-0.1,1.1v9.8c0,0.5,0,0.9,0.1,1.1
			s0.1,0.5,0.2,0.6c0,0.1,0.1,0.1,0.2,0.2c0.1,0.1,0.2,0.1,0.3,0.2c0.1,0,0.3,0.1,0.4,0.1c0.1,0,0.3,0.1,0.4,0.1h0.5v0.4H318.2z"/>
	</g>
	<g class="st0">
		<path class="st2" d="M337.6,50.6v-0.4h0.5c0.4,0,0.6,0,0.9-0.1c0.2-0.1,0.4-0.2,0.5-0.4c0.2-0.2,0.2-0.8,0.2-1.7V37.8l-5.9,12.8
			h-0.4l-5.9-12.8V48c0,1,0.1,1.6,0.3,1.8c0.2,0.3,0.7,0.5,1.3,0.5h0.5v0.4h-5.3v-0.4h0.5c0.3,0,0.6,0,0.8-0.1
			c0.2-0.1,0.4-0.2,0.6-0.4c0.1-0.1,0.1-0.3,0.2-0.6c0-0.3,0.1-0.6,0.1-1.1V38c0-0.5,0-0.9-0.1-1.2c-0.1-0.3-0.2-0.5-0.4-0.7
			c-0.2-0.1-0.4-0.2-0.6-0.3c-0.2-0.1-0.6-0.1-1-0.1v-0.4h4.3l5.5,11.9l5.5-11.9h4.3v0.4h-0.5c-0.6,0-1.1,0.2-1.4,0.6
			c-0.1,0.1-0.1,0.3-0.2,0.6S342,37.6,342,38V48c0,0.9,0.1,1.5,0.3,1.8c0.3,0.3,0.7,0.5,1.3,0.5h0.5v0.4H337.6z"/>
	</g>
	<g class="st0">
		<path class="st2" d="M355.7,50.6h-11.7v-0.4h0.5c0.1,0,0.2,0,0.3,0c0.1,0,0.2,0,0.3-0.1s0.2-0.1,0.3-0.1s0.2-0.1,0.3-0.2
			c0.1-0.1,0.1-0.1,0.2-0.2c0.1-0.1,0.1-0.2,0.1-0.3c0-0.1,0.1-0.3,0.1-0.5c0-0.2,0-0.5,0-0.8V38c0-0.5,0-0.9-0.1-1.2
			c-0.1-0.3-0.1-0.5-0.2-0.6c-0.3-0.3-0.7-0.5-1.4-0.5h-0.5v-0.4h11.7l0.2,3.3h-0.4c-0.1-0.2-0.1-0.4-0.1-0.6s-0.1-0.4-0.2-0.6
			c-0.1-0.2-0.2-0.4-0.3-0.5s-0.3-0.3-0.5-0.4c-0.2-0.1-0.4-0.2-0.8-0.3c-0.3-0.1-0.7-0.1-1.1-0.1h-4.2v6h3.4c0.5,0,0.9,0,1.2-0.1
			c0.3-0.1,0.5-0.2,0.7-0.4s0.3-0.4,0.3-0.7c0.1-0.3,0.1-0.6,0.2-1h0.4v5.3H354c-0.1-0.4-0.1-0.7-0.2-1s-0.2-0.5-0.3-0.7
			s-0.4-0.3-0.7-0.4s-0.7-0.1-1.2-0.1h-3.4v5.7c0,0.2,0,0.4,0.1,0.5c0.1,0.2,0.2,0.3,0.4,0.4s0.4,0.1,0.8,0.1h2.6c0.4,0,0.8,0,1.1,0
			c0.3,0,0.6-0.1,0.8-0.2c0.3-0.1,0.5-0.2,0.7-0.3c0.2-0.1,0.4-0.3,0.6-0.6c0.2-0.2,0.4-0.5,0.6-0.8c0.2-0.3,0.4-0.7,0.7-1.1h0.5
			L355.7,50.6z"/>
	</g>
	<g class="st0">
		<path class="st2" d="M375.4,50.6v-0.4h0.5c0.4,0,0.6,0,0.9-0.1c0.2-0.1,0.4-0.2,0.5-0.4c0.2-0.2,0.2-0.8,0.2-1.7V37.8l-5.9,12.8
			h-0.4l-5.9-12.8V48c0,1,0.1,1.6,0.3,1.8c0.2,0.3,0.7,0.5,1.3,0.5h0.5v0.4h-5.3v-0.4h0.5c0.3,0,0.6,0,0.8-0.1
			c0.2-0.1,0.4-0.2,0.6-0.4c0.1-0.1,0.1-0.3,0.2-0.6c0-0.3,0.1-0.6,0.1-1.1V38c0-0.5,0-0.9-0.1-1.2s-0.2-0.5-0.4-0.7
			c-0.2-0.1-0.4-0.2-0.6-0.3c-0.2-0.1-0.6-0.1-1-0.1v-0.4h4.3l5.5,11.9l5.5-11.9h4.3v0.4h-0.5c-0.6,0-1.1,0.2-1.4,0.6
			c-0.1,0.1-0.1,0.3-0.2,0.6c0,0.3-0.1,0.6-0.1,1.1V48c0,0.9,0.1,1.5,0.3,1.8c0.3,0.3,0.7,0.5,1.3,0.5h0.5v0.4H375.4z"/>
	</g>
	<g class="st0">
		<path class="st2" d="M381.8,50.6v-0.4h0.5c0.3,0,0.6,0,0.8-0.1c0.2-0.1,0.4-0.2,0.5-0.4c0.2-0.2,0.3-0.8,0.3-1.7v-9.8
			c0-0.3,0-0.5,0-0.7c0-0.2,0-0.3,0-0.5c0-0.1,0-0.2-0.1-0.3c0-0.1-0.1-0.2-0.1-0.2c-0.1-0.2-0.3-0.3-0.6-0.4
			c-0.3-0.1-0.5-0.2-0.8-0.2h-0.5v-0.4h6.5v0.4h-0.6c-0.6,0-1,0.2-1.3,0.6c-0.1,0.1-0.1,0.3-0.2,0.6c-0.1,0.3-0.1,0.7-0.1,1.1v9.8
			c0,0.5,0,0.9,0.1,1.1s0.1,0.5,0.2,0.6c0,0.1,0.1,0.1,0.2,0.2c0.1,0.1,0.2,0.1,0.3,0.2s0.3,0.1,0.4,0.1c0.1,0,0.3,0.1,0.4,0.1h0.6
			v0.4H381.8z"/>
	</g>
	<g class="st0">
		<path class="st2" d="M403.5,35.8c-0.3,0-0.6,0-0.8,0.1c-0.2,0.1-0.4,0.2-0.5,0.4c-0.2,0.3-0.2,0.8-0.2,1.7v12.8h-0.4l-10.1-12.3
			V48c0,0.9,0.1,1.5,0.3,1.8c0.3,0.3,0.7,0.5,1.3,0.5h0.5v0.4h-5.3v-0.4h0.5c0.3,0,0.6,0,0.8-0.1c0.2-0.1,0.4-0.2,0.5-0.4
			c0.1-0.1,0.2-0.3,0.2-0.6s0.1-0.6,0.1-1.1V37.4c-0.1-0.1-0.2-0.2-0.3-0.4c-0.1-0.2-0.3-0.4-0.4-0.5c-0.2-0.2-0.4-0.3-0.7-0.5
			c-0.3-0.1-0.7-0.2-1.1-0.2v-0.4h3.7l9.3,11.4V38c0-1-0.1-1.5-0.3-1.8c-0.3-0.3-0.7-0.5-1.3-0.5h-0.5v-0.4h5.3v0.4H403.5z"/>
	</g>
	<g class="st0">
		<path class="st2" d="M403.8,50.6v-0.4h0.6c0.3,0,0.6,0,0.8-0.1c0.2-0.1,0.4-0.2,0.6-0.4c0.2-0.2,0.3-0.8,0.3-1.7v-9.8
			c0-0.3,0-0.5,0-0.7s0-0.3,0-0.5c0-0.1,0-0.2-0.1-0.3c0-0.1-0.1-0.2-0.1-0.2c-0.1-0.2-0.3-0.3-0.6-0.4c-0.3-0.1-0.5-0.2-0.8-0.2
			h-0.6v-0.4h6.5v0.4h-0.5c-0.6,0-1,0.2-1.3,0.6c-0.1,0.1-0.1,0.3-0.2,0.6s-0.1,0.7-0.1,1.1v9.8c0,0.5,0,0.9,0.1,1.1
			s0.1,0.5,0.2,0.6c0,0.1,0.1,0.1,0.2,0.2s0.2,0.1,0.3,0.2s0.3,0.1,0.4,0.1c0.1,0,0.3,0.1,0.4,0.1h0.5v0.4H403.8z"/>
	</g>
	<g class="st0">
		<path class="st2" d="M421.3,46.7c0,0.6-0.1,1.1-0.4,1.6c-0.2,0.5-0.6,1-1,1.4c-0.4,0.4-0.9,0.7-1.5,0.9s-1.2,0.3-1.9,0.3
			c-0.5,0-1,0-1.4-0.1c-0.4-0.1-0.8-0.2-1.1-0.3c-0.3-0.1-0.6-0.2-0.9-0.3s-0.5-0.1-0.7-0.1s-0.3,0.1-0.4,0.2
			c-0.1,0.1-0.2,0.4-0.2,0.7h-0.4v-5.2h0.4c0.1,0.8,0.3,1.5,0.6,2c0.3,0.5,0.6,1,1,1.3c0.4,0.3,0.9,0.6,1.4,0.8
			c0.5,0.2,1,0.2,1.6,0.2c0.5,0,0.9-0.1,1.3-0.2s0.7-0.3,1-0.5c0.3-0.2,0.5-0.5,0.6-0.8c0.1-0.3,0.2-0.6,0.2-1c0-0.4-0.1-0.7-0.2-1
			c-0.1-0.3-0.3-0.6-0.6-0.8s-0.7-0.5-1.1-0.8c-0.5-0.3-1-0.6-1.7-1c-0.9-0.5-1.6-1-2.2-1.4c-0.6-0.4-1-0.8-1.4-1.2
			c-0.3-0.4-0.6-0.7-0.7-1.1s-0.2-0.8-0.2-1.3c0-0.5,0.1-1.1,0.3-1.5c0.2-0.5,0.5-0.9,0.9-1.3c0.4-0.4,0.9-0.7,1.4-0.9
			c0.5-0.2,1.2-0.3,1.8-0.3c0.4,0,0.8,0,1.2,0.1s0.7,0.2,1,0.3c0.3,0.1,0.5,0.2,0.8,0.3c0.2,0.1,0.4,0.1,0.6,0.1
			c0.2,0,0.3-0.1,0.4-0.2c0.1-0.1,0.2-0.3,0.3-0.7h0.4v5.3h-0.4c-0.1-0.7-0.2-1.4-0.5-1.9c-0.2-0.5-0.6-1-0.9-1.4
			c-0.4-0.4-0.8-0.6-1.3-0.8s-1-0.3-1.5-0.3c-0.4,0-0.7,0.1-1,0.2c-0.3,0.1-0.6,0.3-0.8,0.5c-0.2,0.2-0.4,0.5-0.6,0.7
			c-0.1,0.3-0.2,0.6-0.2,0.9c0,0.3,0.1,0.6,0.2,0.8c0.1,0.3,0.3,0.5,0.6,0.8s0.7,0.6,1.2,0.9c0.5,0.3,1.1,0.7,1.9,1.1
			c0.7,0.4,1.3,0.7,1.8,1s0.8,0.5,1.1,0.7c0.5,0.4,0.9,0.8,1.2,1.4C421.1,45.5,421.3,46.1,421.3,46.7z"/>
	</g>
	<g class="st0">
		<path class="st2" d="M434.3,39c0-0.3-0.1-0.5-0.1-0.7s-0.1-0.4-0.2-0.5c-0.1-0.1-0.1-0.3-0.2-0.4c-0.1-0.1-0.2-0.2-0.2-0.3
			c-0.2-0.3-0.5-0.4-0.8-0.6c-0.3-0.1-0.7-0.2-1.2-0.2h-2.2V48c0,0.5,0,0.9,0.1,1.2c0.1,0.3,0.1,0.5,0.2,0.6
			c0.3,0.3,0.7,0.5,1.3,0.5h0.5v0.4h-6.5v-0.4h0.6c0.3,0,0.6,0,0.8-0.1c0.2-0.1,0.4-0.2,0.5-0.4c0.1-0.1,0.1-0.3,0.2-0.6
			c0-0.3,0.1-0.6,0.1-1.1V36.3h-1.8c-0.3,0-0.6,0-0.8,0c-0.2,0-0.4,0-0.5,0.1s-0.3,0.1-0.4,0.1c-0.1,0.1-0.2,0.1-0.3,0.2
			c-0.5,0.4-0.9,1.1-1,2.2h-0.5l0.2-3.6h12.6l0.1,3.6H434.3z"/>
		<path class="st2" d="M446.6,50.6h-11.7v-0.4h0.5c0.1,0,0.2,0,0.3,0c0.1,0,0.2,0,0.3-0.1c0.1,0,0.2-0.1,0.3-0.1s0.2-0.1,0.3-0.2
			c0.1-0.1,0.1-0.1,0.2-0.2c0.1-0.1,0.1-0.2,0.1-0.3c0-0.1,0.1-0.3,0.1-0.5c0-0.2,0-0.5,0-0.8V38c0-0.5,0-0.9-0.1-1.2
			s-0.1-0.5-0.2-0.6c-0.3-0.3-0.7-0.5-1.4-0.5h-0.5v-0.4h11.7l0.2,3.3h-0.4c-0.1-0.2-0.1-0.4-0.1-0.6c0-0.2-0.1-0.4-0.2-0.6
			s-0.2-0.4-0.3-0.5s-0.3-0.3-0.5-0.4c-0.2-0.1-0.4-0.2-0.8-0.3c-0.3-0.1-0.7-0.1-1.1-0.1h-4.2v6h3.4c0.5,0,0.9,0,1.2-0.1
			c0.3-0.1,0.5-0.2,0.7-0.4c0.2-0.2,0.3-0.4,0.3-0.7s0.1-0.6,0.2-1h0.4v5.3h-0.4c-0.1-0.4-0.1-0.7-0.2-1s-0.2-0.5-0.3-0.7
			s-0.4-0.3-0.7-0.4s-0.7-0.1-1.2-0.1h-3.4v5.7c0,0.2,0,0.4,0.1,0.5s0.2,0.3,0.4,0.4s0.4,0.1,0.8,0.1h2.6c0.4,0,0.8,0,1.1,0
			c0.3,0,0.6-0.1,0.8-0.2c0.3-0.1,0.5-0.2,0.7-0.3c0.2-0.1,0.4-0.3,0.6-0.6c0.2-0.2,0.4-0.5,0.6-0.8c0.2-0.3,0.4-0.7,0.7-1.1h0.5
			L446.6,50.6z"/>
	</g>
	<g class="st0">
		<path class="st2" d="M458.6,50.6l-5.2-7.1c-0.2,0-0.4,0-0.5,0c-0.2,0-0.3,0-0.4,0c-0.1,0-0.2,0-0.3,0c-0.1,0-0.2,0-0.4,0v4.4
			c0,1,0.1,1.6,0.3,1.8c0.3,0.3,0.7,0.5,1.3,0.5h0.6v0.4h-6.5v-0.4h0.6c0.7,0,1.1-0.2,1.4-0.6c0.1-0.2,0.2-0.8,0.2-1.7v-9.8
			c0-0.9-0.1-1.5-0.3-1.8c-0.2-0.2-0.3-0.3-0.6-0.4c-0.2-0.1-0.5-0.1-0.7-0.1h-0.6v-0.4h5.5c0.8,0,1.5,0,2.1,0.1
			c0.6,0.1,1.1,0.1,1.5,0.3c0.4,0.1,0.8,0.3,1.1,0.5s0.6,0.5,0.9,0.8s0.4,0.6,0.6,1c0.1,0.4,0.2,0.8,0.2,1.2c0,0.5-0.1,0.9-0.2,1.3
			c-0.1,0.4-0.4,0.8-0.7,1.1c-0.3,0.3-0.7,0.6-1.2,0.9s-1,0.4-1.7,0.6l3.1,4.4c0.3,0.5,0.7,0.9,1,1.2s0.6,0.6,0.9,0.8
			c0.3,0.2,0.6,0.3,0.9,0.4c0.3,0.1,0.7,0.2,1.1,0.2v0.4H458.6z M456.9,39.5c0-0.5-0.1-0.9-0.2-1.3c-0.2-0.4-0.4-0.7-0.7-1
			c-0.3-0.3-0.6-0.5-1-0.7s-0.9-0.2-1.4-0.3c-0.2,0-0.4,0-0.7,0.1c-0.3,0-0.6,0.1-1,0.1v6.4h0.6c0.7,0,1.4-0.1,1.9-0.2
			c0.5-0.2,1-0.4,1.4-0.7s0.6-0.6,0.8-1S456.9,40,456.9,39.5z"/>
	</g>
	<g class="st0">
		<path class="st2" d="M467,37.3c0,0.4-0.1,0.7-0.2,1.1c-0.1,0.3-0.2,0.6-0.4,0.8c-0.2,0.2-0.4,0.5-0.6,0.7
			c-0.2,0.2-0.4,0.4-0.6,0.5c-0.2,0.1-0.4,0.2-0.6,0.3c-0.2,0.1-0.4,0.2-0.5,0.2v-0.5c0.2-0.1,0.4-0.3,0.6-0.4
			c0.2-0.1,0.4-0.3,0.6-0.5c0.2-0.2,0.3-0.4,0.5-0.6c0.1-0.2,0.2-0.5,0.2-0.8c0-0.1,0-0.3-0.1-0.4c0-0.1-0.1-0.2-0.1-0.2
			s-0.1-0.1-0.1-0.1s-0.1,0-0.1,0c-0.1,0-0.2,0-0.4,0.1c-0.2,0.1-0.3,0.1-0.5,0.1c-0.1,0-0.3,0-0.4-0.1s-0.3-0.1-0.4-0.2
			c-0.1-0.1-0.2-0.2-0.3-0.4c-0.1-0.1-0.1-0.3-0.1-0.5c0-0.2,0-0.4,0.1-0.6c0.1-0.2,0.2-0.3,0.4-0.4c0.1-0.1,0.3-0.2,0.5-0.2
			c0.2-0.1,0.3-0.1,0.5-0.1c0.2,0,0.5,0.1,0.7,0.2s0.4,0.3,0.6,0.4s0.3,0.4,0.5,0.7C466.9,36.6,467,36.9,467,37.3z"/>
	</g>
	<g class="st0">
		<path class="st2" d="M479.5,46.7c0,0.6-0.1,1.1-0.4,1.6c-0.2,0.5-0.6,1-1,1.4c-0.4,0.4-0.9,0.7-1.5,0.9s-1.2,0.3-1.9,0.3
			c-0.5,0-1,0-1.4-0.1c-0.4-0.1-0.8-0.2-1.1-0.3c-0.3-0.1-0.6-0.2-0.9-0.3s-0.5-0.1-0.7-0.1s-0.3,0.1-0.4,0.2
			c-0.1,0.1-0.2,0.4-0.2,0.7h-0.4v-5.2h0.4c0.1,0.8,0.3,1.5,0.6,2c0.3,0.5,0.6,1,1,1.3c0.4,0.3,0.9,0.6,1.4,0.8
			c0.5,0.2,1,0.2,1.6,0.2c0.5,0,0.9-0.1,1.3-0.2s0.7-0.3,1-0.5c0.3-0.2,0.5-0.5,0.6-0.8c0.1-0.3,0.2-0.6,0.2-1c0-0.4-0.1-0.7-0.2-1
			c-0.1-0.3-0.3-0.6-0.6-0.8s-0.7-0.5-1.1-0.8c-0.5-0.3-1-0.6-1.7-1c-0.9-0.5-1.6-1-2.2-1.4c-0.6-0.4-1-0.8-1.4-1.2
			c-0.3-0.4-0.6-0.7-0.7-1.1s-0.2-0.8-0.2-1.3c0-0.5,0.1-1.1,0.3-1.5c0.2-0.5,0.5-0.9,0.9-1.3c0.4-0.4,0.9-0.7,1.4-0.9
			c0.5-0.2,1.2-0.3,1.8-0.3c0.4,0,0.8,0,1.2,0.1s0.7,0.2,1,0.3c0.3,0.1,0.5,0.2,0.8,0.3c0.2,0.1,0.4,0.1,0.6,0.1
			c0.2,0,0.3-0.1,0.4-0.2c0.1-0.1,0.2-0.3,0.3-0.7h0.4v5.3H478c-0.1-0.7-0.2-1.4-0.5-1.9c-0.2-0.5-0.6-1-0.9-1.4
			c-0.4-0.4-0.8-0.6-1.3-0.8s-1-0.3-1.5-0.3c-0.4,0-0.7,0.1-1,0.2c-0.3,0.1-0.6,0.3-0.8,0.5c-0.2,0.2-0.4,0.5-0.6,0.7
			c-0.1,0.3-0.2,0.6-0.2,0.9c0,0.3,0.1,0.6,0.2,0.8c0.1,0.3,0.3,0.5,0.6,0.8s0.7,0.6,1.2,0.9c0.5,0.3,1.1,0.7,1.9,1.1
			c0.7,0.4,1.3,0.7,1.8,1s0.8,0.5,1.1,0.7c0.5,0.4,0.9,0.8,1.2,1.4C479.3,45.5,479.5,46.1,479.5,46.7z"/>
	</g>
	<g class="st0">
		<path class="st2" d="M307.5,68.1c0,0.8-0.1,1.5-0.3,2.2c-0.2,0.7-0.4,1.3-0.7,1.9c-0.3,0.6-0.7,1.1-1.2,1.6
			c-0.4,0.5-1,0.9-1.5,1.2c-0.6,0.3-1.2,0.6-1.8,0.8c-0.6,0.2-1.3,0.3-2,0.3c-1,0-2-0.2-2.9-0.6c-0.9-0.4-1.7-0.9-2.4-1.6
			c-0.7-0.7-1.2-1.5-1.6-2.5c-0.4-1-0.6-2.1-0.6-3.3c0-1.1,0.2-2.2,0.6-3.2c0.4-1,0.9-1.8,1.6-2.5c0.7-0.7,1.5-1.3,2.4-1.7
			c0.9-0.4,1.9-0.6,3-0.6c0.7,0,1.3,0.1,1.9,0.3c0.6,0.2,1.2,0.4,1.7,0.8s1,0.7,1.5,1.2c0.4,0.5,0.8,1,1.1,1.6
			c0.3,0.6,0.6,1.2,0.7,1.9C307.4,66.6,307.5,67.4,307.5,68.1z M304.9,68.4c0-1.2-0.1-2.2-0.3-3.1c-0.2-0.9-0.5-1.7-0.9-2.3
			c-0.4-0.6-0.9-1.1-1.6-1.4s-1.4-0.5-2.2-0.5c-0.8,0-1.4,0.2-2,0.5c-0.6,0.3-1.1,0.8-1.5,1.4c-0.4,0.6-0.7,1.4-0.9,2.2
			c-0.2,0.9-0.3,1.9-0.3,2.9c0,1.1,0.1,2.1,0.3,3c0.2,0.9,0.5,1.7,0.9,2.3c0.4,0.6,0.9,1.1,1.5,1.5s1.3,0.5,2.1,0.5
			c0.7,0,1.4-0.1,2-0.4s1.1-0.7,1.6-1.3c0.4-0.6,0.8-1.3,1-2.2C304.8,70.6,304.9,69.6,304.9,68.4z"/>
	</g>
	<g class="st0">
		<path class="st2" d="M318.7,63.9c-0.1-0.5-0.3-0.9-0.4-1.2c-0.2-0.3-0.4-0.6-0.6-0.8c-0.3-0.2-0.6-0.3-0.9-0.4
			c-0.4-0.1-0.8-0.1-1.4-0.1H312v6h2.8c0.3,0,0.6,0,0.8-0.1c0.2-0.1,0.4-0.2,0.6-0.3s0.3-0.4,0.4-0.6c0.1-0.3,0.2-0.6,0.2-1h0.4v5.2
			h-0.4c0-0.4,0-0.7-0.1-0.9s-0.2-0.5-0.3-0.7c-0.2-0.2-0.4-0.3-0.6-0.4c-0.3-0.1-0.6-0.1-1-0.1H312v4.8c0,0.5,0,0.9,0,1.1
			s0.1,0.5,0.2,0.6c0.2,0.2,0.4,0.3,0.6,0.4c0.3,0.1,0.5,0.1,0.8,0.1h0.6v0.4h-6.5v-0.4h0.6c0.6,0,1-0.2,1.3-0.5
			c0.2-0.2,0.3-0.8,0.3-1.7v-9.8c0-0.3,0-0.5,0-0.7c0-0.2,0-0.4-0.1-0.5s-0.1-0.3-0.1-0.3c0-0.1-0.1-0.2-0.1-0.2
			c-0.2-0.2-0.4-0.3-0.6-0.4c-0.2-0.1-0.5-0.1-0.7-0.1h-0.6v-0.4H319l0.2,3.3H318.7z"/>
		<path class="st2" d="M330.5,63.9c-0.1-0.5-0.3-0.9-0.4-1.2c-0.2-0.3-0.4-0.6-0.6-0.8c-0.3-0.2-0.6-0.3-0.9-0.4
			c-0.4-0.1-0.8-0.1-1.4-0.1h-3.4v6h2.8c0.3,0,0.6,0,0.8-0.1c0.2-0.1,0.4-0.2,0.6-0.3s0.3-0.4,0.4-0.6c0.1-0.3,0.2-0.6,0.2-1h0.4
			v5.2h-0.4c0-0.4,0-0.7-0.1-0.9s-0.2-0.5-0.3-0.7c-0.2-0.2-0.4-0.3-0.6-0.4c-0.3-0.1-0.6-0.1-1-0.1h-2.8v4.8c0,0.5,0,0.9,0,1.1
			s0.1,0.5,0.2,0.6c0.2,0.2,0.4,0.3,0.6,0.4c0.3,0.1,0.5,0.1,0.8,0.1h0.6v0.4h-6.5v-0.4h0.6c0.6,0,1-0.2,1.3-0.5
			c0.2-0.2,0.3-0.8,0.3-1.7v-9.8c0-0.3,0-0.5,0-0.7c0-0.2,0-0.4-0.1-0.5s-0.1-0.3-0.1-0.3c0-0.1-0.1-0.2-0.1-0.2
			c-0.2-0.2-0.4-0.3-0.6-0.4c-0.2-0.1-0.5-0.1-0.7-0.1h-0.6v-0.4h11.3l0.2,3.3H330.5z"/>
	</g>
	<g class="st0">
		<path class="st2" d="M331.1,75.8v-0.4h0.5c0.3,0,0.6,0,0.8-0.1c0.2-0.1,0.4-0.2,0.5-0.4c0.2-0.2,0.3-0.8,0.3-1.7v-9.8
			c0-0.3,0-0.5,0-0.7c0-0.2,0-0.3,0-0.5c0-0.1,0-0.2-0.1-0.3c0-0.1-0.1-0.2-0.1-0.2c-0.1-0.2-0.3-0.3-0.6-0.4
			c-0.3-0.1-0.5-0.2-0.8-0.2h-0.5v-0.4h6.5V61h-0.6c-0.6,0-1,0.2-1.3,0.6c-0.1,0.1-0.1,0.3-0.2,0.6c-0.1,0.3-0.1,0.7-0.1,1.1v9.8
			c0,0.5,0,0.9,0.1,1.1s0.1,0.5,0.2,0.6c0,0.1,0.1,0.1,0.2,0.2c0.1,0.1,0.2,0.1,0.3,0.2s0.3,0.1,0.4,0.1c0.1,0,0.3,0.1,0.4,0.1h0.6
			v0.4H331.1z"/>
	</g>
	<g class="st0">
		<path class="st2" d="M351.6,72.3c-0.4,0.7-0.8,1.2-1.2,1.7c-0.4,0.5-0.9,0.9-1.4,1.2c-0.5,0.3-1.1,0.6-1.7,0.7s-1.3,0.2-2,0.2
			c-0.8,0-1.5-0.1-2.2-0.3c-0.7-0.2-1.3-0.5-1.8-0.8c-0.5-0.3-1-0.8-1.5-1.2s-0.8-1-1.1-1.6c-0.3-0.6-0.5-1.2-0.7-1.8
			c-0.1-0.7-0.2-1.3-0.2-2c0-1.1,0.2-2.2,0.6-3.2c0.4-1,0.9-1.9,1.6-2.6c0.7-0.7,1.5-1.3,2.5-1.8c1-0.4,2-0.7,3.2-0.7
			c0.6,0,1.1,0.1,1.5,0.2c0.4,0.1,0.8,0.2,1.1,0.4s0.6,0.3,0.8,0.4c0.2,0.1,0.4,0.2,0.5,0.2c0.2,0,0.4-0.1,0.6-0.3
			c0.2-0.2,0.3-0.4,0.4-0.8h0.4l0.4,5.2h-0.4c-0.2-0.8-0.5-1.4-0.9-2c-0.3-0.6-0.7-1-1.2-1.4s-0.9-0.6-1.4-0.8
			c-0.5-0.2-1.1-0.2-1.7-0.2c-0.8,0-1.5,0.1-2.2,0.4c-0.7,0.3-1.2,0.8-1.7,1.4c-0.5,0.6-0.8,1.4-1.1,2.3s-0.4,2-0.4,3.3
			c0,1.1,0.1,2,0.4,2.9c0.3,0.8,0.7,1.5,1.2,2.1c0.5,0.6,1.1,1,1.8,1.3s1.5,0.4,2.3,0.4c0.5,0,1,0,1.4-0.1s0.8-0.3,1.2-0.5
			c0.4-0.2,0.8-0.6,1.2-1c0.4-0.4,0.8-0.9,1.3-1.6L351.6,72.3z"/>
	</g>
	<g class="st0">
		<path class="st2" d="M363.5,75.8h-11.7v-0.4h0.5c0.1,0,0.2,0,0.3,0c0.1,0,0.2,0,0.3-0.1s0.2-0.1,0.3-0.1s0.2-0.1,0.3-0.2
			c0.1-0.1,0.1-0.1,0.2-0.2c0.1-0.1,0.1-0.2,0.1-0.3c0-0.1,0.1-0.3,0.1-0.5c0-0.2,0-0.5,0-0.8v-9.9c0-0.5,0-0.9-0.1-1.2
			c-0.1-0.3-0.1-0.5-0.2-0.6c-0.3-0.3-0.7-0.5-1.4-0.5h-0.5v-0.4h11.7l0.2,3.3h-0.4c-0.1-0.2-0.1-0.4-0.1-0.6s-0.1-0.4-0.2-0.6
			c-0.1-0.2-0.2-0.4-0.3-0.5s-0.3-0.3-0.5-0.4c-0.2-0.1-0.4-0.2-0.8-0.3c-0.3-0.1-0.7-0.1-1.1-0.1h-4.2v6h3.4c0.5,0,0.9,0,1.2-0.1
			c0.3-0.1,0.5-0.2,0.7-0.4s0.3-0.4,0.3-0.7c0.1-0.3,0.1-0.6,0.2-1h0.4v5.3h-0.4c-0.1-0.4-0.1-0.7-0.2-1s-0.2-0.5-0.3-0.7
			s-0.4-0.3-0.7-0.4s-0.7-0.1-1.2-0.1h-3.4V74c0,0.2,0,0.4,0.1,0.5c0.1,0.2,0.2,0.3,0.4,0.4s0.4,0.1,0.8,0.1h2.6c0.4,0,0.8,0,1.1,0
			c0.3,0,0.6-0.1,0.8-0.2c0.3-0.1,0.5-0.2,0.7-0.3c0.2-0.1,0.4-0.3,0.6-0.6c0.2-0.2,0.4-0.5,0.6-0.8c0.2-0.3,0.4-0.7,0.7-1.1h0.5
			L363.5,75.8z"/>
	</g>
</g>
</svg>
